<svg width="20" height="20" viewBox="0 0 20 20" fill="none" xmlns="http://www.w3.org/2000/svg">
<g clip-path="url(#clip0)">
<path d="M11.7188 6.4834C11.7188 6.80704 11.4565 7.06933 11.1328 7.06933C10.8092 7.06933 10.5469 6.80704 10.5469 6.4834C10.5469 6.15976 10.8092 5.89746 11.1328 5.89746C11.4565 5.89746 11.7188 6.15976 11.7188 6.4834Z" fill="white"/>
<path d="M12.8906 7.65527C12.8906 7.97891 12.6283 8.24121 12.3047 8.24121C11.9811 8.24121 11.7188 7.97891 11.7188 7.65527C11.7188 7.33163 11.9811 7.06934 12.3047 7.06934C12.6283 7.06934 12.8906 7.33163 12.8906 7.65527Z" fill="white"/>
<path d="M11.7188 8.82715C11.7188 9.15079 11.4565 9.41308 11.1328 9.41308C10.8092 9.41308 10.5469 9.15079 10.5469 8.82715C10.5469 8.50351 10.8092 8.24121 11.1328 8.24121C11.4565 8.24121 11.7188 8.50351 11.7188 8.82715Z" fill="white"/>
<path d="M10.5469 7.65527C10.5469 7.97891 10.2846 8.24121 9.96094 8.24121C9.6373 8.24121 9.375 7.97891 9.375 7.65527C9.375 7.33163 9.6373 7.06934 9.96094 7.06934C10.2846 7.06934 10.5469 7.33163 10.5469 7.65527Z" fill="white"/>
<path d="M3.51471 11.7147C3.65662 11.9394 3.81058 12.1578 3.97477 12.3661C4.44107 12.9578 4.68781 13.619 4.68781 14.2782V19.4521C4.68781 19.7757 4.9498 20.038 5.27344 20.038H11.1328C11.4563 20.038 11.7188 19.7757 11.7188 19.4521V17.6162H16.9922C17.3157 17.6162 17.5781 17.3539 17.5781 17.0302V12.9287H19.4141C19.6224 12.9287 19.8149 12.818 19.9201 12.6383C20.025 12.4584 20.0267 12.2362 19.9243 12.0548L17.5745 7.8899C17.5865 7.49348 17.5678 7.0911 17.5189 6.69117C17.1083 3.33606 14.4034 0.578036 11.0455 0.113253C8.03559 -0.303312 5.11322 1.05823 3.51441 3.59592C1.53 3.88157 0 5.59299 0 7.65522C0 9.7176 1.53015 11.429 3.51471 11.7147ZM10.8847 1.27414C13.7085 1.66492 16.0094 4.00303 16.3558 6.83353C16.4035 7.22431 16.4174 7.61723 16.3971 8.0016C16.3912 8.11283 16.4173 8.22346 16.4719 8.32051L18.4107 11.7568H16.9922C16.6686 11.7568 16.4063 12.0191 16.4063 12.3427V14.1005H14.6485C14.3248 14.1005 14.0625 14.3628 14.0625 14.6865C14.0625 15.0101 14.3248 15.2724 14.6485 15.2724H16.4063V16.4443H11.2711L9.05106 15.3342C8.76176 15.1896 8.40974 15.3069 8.26493 15.5964C8.12028 15.8858 8.23762 16.2377 8.52693 16.3825L10.5469 17.3923V18.8662H5.85938V14.2782C5.85938 13.3651 5.53406 12.4649 4.91898 11.6721C5.67856 11.5137 6.38718 11.138 6.95389 10.5849H8.28049C9.04679 11.3327 10.072 11.7568 11.1328 11.7568C13.3945 11.7568 15.2344 9.91688 15.2344 7.65522C15.2344 5.39356 13.3945 3.55366 11.1328 3.55366C10.072 3.55366 9.04679 3.9777 8.28049 4.72553H6.95389C6.38718 4.1724 5.67872 3.79673 4.91913 3.63834C6.32813 1.86863 8.57575 0.954471 10.8847 1.27414ZM4.10157 4.72553C4.93134 4.72553 5.7013 5.07297 6.26954 5.70362C6.38062 5.82706 6.53886 5.89741 6.70487 5.89741H8.52967C8.69569 5.89741 8.85377 5.82706 8.965 5.70362C9.53324 5.07297 10.303 4.72553 11.133 4.72553C12.7483 4.72553 14.0627 6.03977 14.0627 7.65522C14.0627 9.27067 12.7483 10.5849 11.133 10.5849C10.3032 10.5849 9.53324 10.2376 8.965 9.60682C8.85392 9.48353 8.69569 9.41304 8.52967 9.41304H6.70487C6.53886 9.41304 6.38062 9.48353 6.26954 9.60682C5.7013 10.2376 4.93134 10.5849 4.10157 10.5849C2.48612 10.5849 1.17188 9.27067 1.17188 7.65522C1.17188 6.03977 2.48612 4.72553 4.10157 4.72553Z" fill="white"/>
<path d="M2.92969 8.24122H3.51563V8.82716C3.51563 9.1508 3.77793 9.41309 4.10157 9.41309C4.42521 9.41309 4.68751 9.1508 4.68751 8.82716V8.24122H5.27344C5.59708 8.24122 5.85938 7.97892 5.85938 7.65528C5.85938 7.33164 5.59708 7.06934 5.27344 7.06934H4.68751V6.4834C4.68751 6.15976 4.42521 5.89746 4.10157 5.89746C3.77793 5.89746 3.51563 6.15976 3.51563 6.4834V7.06934H2.92969C2.60605 7.06934 2.34375 7.33164 2.34375 7.65528C2.34375 7.97892 2.60605 8.24122 2.92969 8.24122Z" fill="white"/>
</g>
<defs>
<clipPath id="clip0">
<rect width="20" height="20" fill="white"/>
</clipPath>
</defs>
</svg>
