<svg width="20" height="20" viewBox="0 0 20 20" fill="none" xmlns="http://www.w3.org/2000/svg">
<path d="M10 0C4.47656 0 0 4.47656 0 10C0 15.5234 4.47656 20 10 20C15.5234 20 20 15.5234 20 10C20 4.47656 15.5234 0 10 0ZM10 18.75C5.16797 18.75 1.25 14.832 1.25 10C1.25 5.16797 5.16797 1.25 10 1.25C14.832 1.25 18.75 5.16797 18.75 10C18.75 14.832 14.832 18.75 10 18.75Z" fill="white"/>
<path d="M10 11.25C10.6904 11.25 11.25 10.6904 11.25 10C11.25 9.30964 10.6904 8.75 10 8.75C9.30964 8.75 8.75 9.30964 8.75 10C8.75 10.6904 9.30964 11.25 10 11.25Z" fill="white"/>
<path d="M14.375 11.25C15.0654 11.25 15.625 10.6904 15.625 10C15.625 9.30964 15.0654 8.75 14.375 8.75C13.6846 8.75 13.125 9.30964 13.125 10C13.125 10.6904 13.6846 11.25 14.375 11.25Z" fill="white"/>
<path d="M5.625 11.25C6.31536 11.25 6.875 10.6904 6.875 10C6.875 9.30964 6.31536 8.75 5.625 8.75C4.93464 8.75 4.375 9.30964 4.375 10C4.375 10.6904 4.93464 11.25 5.625 11.25Z" fill="white"/>
</svg>
