<svg width="20" height="20" viewBox="0 0 20 20" fill="none" xmlns="http://www.w3.org/2000/svg">
<g clip-path="url(#clip0)">
<path d="M4.766 19.3742V19.3753C4.766 19.6988 5.0283 19.9612 5.35194 19.9612H11.2113C11.535 19.9612 11.7973 19.6988 11.7973 19.3753C11.7973 18.406 12.5858 17.6175 13.5551 17.6175H15.8981C16.2217 17.6175 16.484 17.355 16.484 17.0315V14.0237C16.484 13.0543 17.2734 12.2659 18.2426 12.2659C18.4591 12.2659 18.6579 12.1464 18.7597 11.9554C18.8615 11.7643 18.8497 11.5327 18.7289 11.3531C18.7088 11.3231 16.8853 8.61019 16.4053 7.89379C16.4054 7.0811 16.4054 6.636 16.4054 6.636C16.4054 6.61082 16.4039 6.58549 16.4005 6.56047C15.9579 3.15241 13.1634 0.39819 9.75609 0.0116842C5.16746 -0.508947 1.25037 3.06406 1.25037 7.57839C1.25037 9.08184 1.68845 10.5369 2.51715 11.7865C3.96735 13.9724 4.766 16.6672 4.766 19.3742ZM9.62395 1.17609C12.4906 1.5014 14.8449 3.81098 15.2343 6.67476C15.2343 6.8098 15.2343 7.29411 15.234 8.07155C15.234 8.18737 15.2682 8.30043 15.3324 8.39672C15.483 8.6227 16.5916 10.2737 17.2573 11.2643C16.3029 11.6063 15.5758 12.4302 15.371 13.4413C14.5295 13.4701 13.0483 13.6601 11.9605 14.7889C11.7359 15.0219 11.7428 15.3929 11.9758 15.6173C12.209 15.842 12.5797 15.8351 12.8043 15.6021C13.5525 14.8257 14.627 14.6538 15.3129 14.6176V16.4454H13.5551C12.1403 16.4454 10.9565 17.4536 10.6841 18.7892H5.92643C5.81932 16.053 4.96498 13.3566 3.49372 11.1386C2.79273 10.0817 2.42224 8.85067 2.42224 7.57823C2.42224 3.84333 5.64872 0.725035 9.62395 1.17609Z" fill="white"/>
<path d="M6.52238 9.33596H7.66252L7.13837 10.9085C7.07887 11.0872 7.10877 11.2836 7.21894 11.4363C7.32896 11.5891 7.50581 11.6797 7.69425 11.6797H9.22502L8.3101 14.424C8.20787 14.731 8.37373 15.0629 8.68074 15.1653C8.9879 15.2675 9.31962 15.1017 9.42186 14.7947L10.5937 11.279C10.6534 11.1003 10.6233 10.904 10.5133 10.7511C10.4032 10.5983 10.2263 10.5078 10.038 10.5078H8.50709L8.89772 9.33596H11.2099C12.5022 9.33596 13.5536 8.28447 13.5536 6.9922C13.5536 5.69978 12.5022 4.64844 11.2099 4.64844H11.151C10.8788 3.31284 9.69499 2.30469 8.28019 2.30469C6.75614 2.30469 5.50034 3.47428 5.36286 4.96308C4.64066 5.37431 4.17847 6.14503 4.17847 6.9922C4.17862 8.28447 5.22995 9.33596 6.52238 9.33596ZM6.13968 5.89204C6.38413 5.80689 6.54374 5.5713 6.53229 5.31281C6.53046 5.271 6.52573 5.23576 6.52253 5.21317C6.53382 4.2537 7.31797 3.47641 8.28019 3.47641C9.24943 3.47641 10.038 4.26499 10.038 5.23423C10.038 5.55787 10.3003 5.82017 10.6239 5.82017H11.2099C11.8561 5.82017 12.3818 6.34599 12.3818 6.99205C12.3818 7.63826 11.8561 8.16408 11.2099 8.16408H9.2885L9.42201 7.76338C9.5244 7.45637 9.35838 7.12449 9.05153 7.02211C8.74437 6.91972 8.41264 7.08574 8.31025 7.39274L8.05314 8.16393H6.52238C5.87632 8.16393 5.3505 7.63826 5.3505 6.99205C5.3505 6.49858 5.66758 6.05653 6.13968 5.89204Z" fill="white"/>
</g>
<defs>
<clipPath id="clip0">
<rect width="20" height="20" fill="white"/>
</clipPath>
</defs>
</svg>
