<svg width="737" height="758" viewBox="0 0 737 758" fill="none" xmlns="http://www.w3.org/2000/svg">
<path d="M441.003 231.215H346.669V422.587H441.003V231.215Z" fill="#EBEEF2"/>
<path d="M352.048 236.397H441.003V231.215H346.669V422.593H352.048V236.397Z" fill="#EBEEF2"/>
<path d="M448.808 217.138H338.87V226.402H448.808V217.138Z" fill="#EBEEF2"/>
<path d="M448.808 427.406H338.87V436.67H448.808V427.406Z" fill="#EBEEF2"/>
<path d="M444.861 226.402H443.549V349.866H444.861V226.402Z" fill="#DEE0E5"/>
<path d="M444.95 236.754H342.722V242.293H444.95V236.754Z" fill="#FCFEFF"/>
<path d="M444.95 244.591H342.722V250.13H444.95V244.591Z" fill="#FCFEFF"/>
<path d="M444.95 252.423H342.722V257.962H444.95V252.423Z" fill="#FCFEFF"/>
<path d="M444.95 260.26H342.722V265.799H444.95V260.26Z" fill="#FCFEFF"/>
<path d="M444.95 268.097H342.722V273.636H444.95V268.097Z" fill="#FCFEFF"/>
<path d="M444.95 275.928H342.722V281.468H444.95V275.928Z" fill="#FCFEFF"/>
<path d="M444.95 283.766H342.722V289.305H444.95V283.766Z" fill="#FCFEFF"/>
<path d="M444.95 291.597H342.722V297.136H444.95V291.597Z" fill="#FCFEFF"/>
<path d="M444.95 299.435H342.722V304.974H444.95V299.435Z" fill="#FCFEFF"/>
<path d="M444.95 307.266H342.722V312.805H444.95V307.266Z" fill="#FCFEFF"/>
<path d="M444.95 315.103H342.722V320.642H444.95V315.103Z" fill="#FCFEFF"/>
<path d="M444.95 322.941H342.722V328.48H444.95V322.941Z" fill="#FCFEFF"/>
<path d="M444.95 330.772H342.722V336.311H444.95V330.772Z" fill="#FCFEFF"/>
<path d="M444.95 338.609H342.722V344.148H444.95V338.609Z" fill="#FCFEFF"/>
<path d="M576.002 231.215H481.668V422.587H576.002V231.215Z" fill="#EBEEF2"/>
<path d="M487.047 236.397H576.002V231.215H481.668V422.593H487.047V236.397Z" fill="#EBEEF2"/>
<path d="M583.807 217.138H473.87V226.402H583.807V217.138Z" fill="#EBEEF2"/>
<path d="M583.807 427.406H473.87V436.67H583.807V427.406Z" fill="#EBEEF2"/>
<path d="M579.86 226.402H578.548V349.866H579.86V226.402Z" fill="#DEE0E5"/>
<path d="M579.949 236.754H477.721V242.293H579.949V236.754Z" fill="#FCFEFF"/>
<path d="M579.949 244.591H477.721V250.13H579.949V244.591Z" fill="#FCFEFF"/>
<path d="M579.949 252.423H477.721V257.962H579.949V252.423Z" fill="#FCFEFF"/>
<path d="M579.949 260.26H477.721V265.799H579.949V260.26Z" fill="#FCFEFF"/>
<path d="M579.949 268.097H477.721V273.636H579.949V268.097Z" fill="#FCFEFF"/>
<path d="M579.949 275.928H477.721V281.468H579.949V275.928Z" fill="#FCFEFF"/>
<path d="M579.949 283.766H477.721V289.305H579.949V283.766Z" fill="#FCFEFF"/>
<path d="M579.949 291.597H477.721V297.136H579.949V291.597Z" fill="#FCFEFF"/>
<path d="M579.949 299.435H477.721V304.974H579.949V299.435Z" fill="#FCFEFF"/>
<path d="M579.949 307.266H477.721V312.805H579.949V307.266Z" fill="#FCFEFF"/>
<path d="M579.949 315.103H477.721V320.642H579.949V315.103Z" fill="#FCFEFF"/>
<path d="M579.949 322.941H477.721V328.48H579.949V322.941Z" fill="#FCFEFF"/>
<path d="M579.949 330.772H477.721V336.311H579.949V330.772Z" fill="#FCFEFF"/>
<path d="M579.949 338.609H477.721V344.148H579.949V338.609Z" fill="#FCFEFF"/>
<path d="M497.003 162.276H425.662C414.623 162.276 405.673 171.228 405.673 182.267V202.132H516.992V182.267C516.992 171.228 508.041 162.276 497.003 162.276Z" fill="#EBEEF2"/>
<path d="M491.223 162.276H483.673V202.132H491.223V162.276Z" fill="#EBEEF2"/>
<path d="M481.827 162.276H478.052V202.132H481.827V162.276Z" fill="#EBEEF2"/>
<path d="M462.373 0H460.298V162.276H462.373V0Z" fill="#EBEEF2"/>
<path d="M463.901 159.761H458.942V162.276H463.901V159.761Z" fill="#EBEEF2"/>
<path d="M239.889 669.623H29.8683C13.3745 669.623 0 656.247 0 639.751V159.907C0 143.411 13.3745 130.035 29.8683 130.035H239.889C256.382 130.035 269.757 143.411 269.757 159.907V639.751C269.757 656.247 256.382 669.623 239.889 669.623Z" fill="black"/>
<path d="M239.889 669.623H29.8683C13.3745 669.623 0 656.247 0 639.751V159.907C0 143.411 13.3745 130.035 29.8683 130.035H239.889C256.382 130.035 269.757 143.411 269.757 159.907V639.751C269.757 656.247 256.382 669.623 239.889 669.623Z" fill="#424973"/>
<path d="M254.632 159.347C254.632 151.217 247.763 144.595 239.316 144.595H30.4348C21.9937 144.595 15.1187 151.21 15.1187 159.347V192.257H254.632V159.347Z" fill="white"/>
<path d="M15.1255 586.709V640.311C15.1255 648.441 21.9942 655.062 30.4416 655.062H239.322C247.77 655.062 254.639 648.447 254.639 640.311V586.709H15.1255Z" fill="white"/>
<path d="M134.878 600.557C123.222 600.557 113.776 609.655 113.776 620.886C113.776 632.11 123.222 641.215 134.878 641.215C146.534 641.215 155.981 632.117 155.981 620.886C155.981 609.661 146.534 600.557 134.878 600.557ZM134.878 639.235C124.355 639.235 115.825 631.022 115.825 620.886C115.825 610.75 124.355 602.537 134.878 602.537C145.401 602.537 153.931 610.75 153.931 620.886C153.931 631.015 145.401 639.235 134.878 639.235Z" fill="#DCD7F6"/>
<path d="M153.931 163.568H129.678C126.998 163.568 124.821 165.746 124.821 168.426C124.821 171.106 126.991 173.284 129.678 173.284H153.931C156.611 173.284 158.788 171.106 158.788 168.426C158.788 165.746 156.611 163.568 153.931 163.568Z" fill="#DCD7F6"/>
<path d="M125.782 169.508C125.782 166.828 128.042 164.65 130.823 164.65H154.708C155.981 164.65 157.127 165.122 158.018 165.867C157.127 164.491 155.555 163.568 153.747 163.568H129.862C127.074 163.568 124.821 165.739 124.821 168.426C124.821 169.884 125.502 171.176 126.552 172.068C126.075 171.316 125.782 170.451 125.782 169.508Z" fill="#424973"/>
<path d="M116.01 173.284C118.794 173.284 121.052 171.109 121.052 168.426C121.052 165.743 118.794 163.568 116.01 163.568C113.226 163.568 110.968 165.743 110.968 168.426C110.968 171.109 113.226 173.284 116.01 173.284Z" fill="#DCD7F6"/>
<path d="M111.612 169.145C111.612 166.465 113.872 164.288 116.653 164.288C118.009 164.288 119.238 164.81 120.148 165.65C119.238 164.396 117.729 163.568 116.017 163.568C113.235 163.568 110.975 165.746 110.975 168.426C110.975 169.801 111.573 171.036 112.522 171.921C111.949 171.132 111.612 170.177 111.612 169.145Z" fill="#424973"/>
<path d="M254.632 192.25H15.1255V586.709H254.632V192.25Z" fill="#6499FC"/>
<path d="M254.507 192H15.0005V245.232H254.507V192Z" fill="#062187"/>
<path d="M84.8049 586.709L82.1058 595.813L172.774 622.681L183.43 586.709H84.8049Z" fill="#EBEEF2"/>
<path d="M203.018 385.908C203.642 407.37 186.441 424.955 165.154 424.955C144.217 424.955 127.246 407.981 127.246 387.041C127.246 386.15 127.322 385.252 127.392 384.361C134.687 381.973 142.174 380.451 149.615 379.643C151.958 379.388 153.708 377.376 153.708 375.021V362.886C157.21 363.955 160.902 364.547 164.747 364.547C168.84 364.547 172.761 363.879 176.453 362.688V375.619C176.453 377.918 178.128 379.898 180.4 380.216C188.65 381.387 196.327 383.336 202.948 385.825C202.986 385.85 202.999 385.876 203.018 385.908Z" fill="#FDC7BF"/>
<path d="M327.291 438.242C327.291 438.242 332.619 406.969 337.947 406.288C343.282 405.606 336.35 422.937 344.345 424.936C352.347 426.935 357.14 393.28 372.609 400.78C388.072 408.274 344.937 462.487 344.937 462.487L327.291 438.242Z" fill="#FDC7BF"/>
<path d="M107 655H159.962C158.143 619.978 153.115 580.382 164.446 580.238C175.605 580.098 169.807 619.673 172.028 655H236C234.283 649.735 233.044 645.573 232.783 643.579C231.646 634.896 224.446 600.529 222.709 594.144C221.241 588.739 216.702 566.022 211.091 560C208.493 561.698 123.897 562.11 121.344 560.979C121.344 560.979 112.707 590.425 111.941 597.367C111.175 604.309 106.425 636.655 107.83 647.838C108.047 649.536 107.702 652.012 107 655Z" fill="#323D50"/>
<path d="M203.017 385.908C202.998 385.876 202.979 385.857 202.96 385.825C196.34 383.342 188.662 381.387 180.412 380.216C178.14 379.891 176.466 377.911 176.466 375.619V365.4C172.92 366.776 169.075 367.559 165.039 367.559C161.041 367.559 157.234 366.788 153.714 365.432V375.027C153.714 377.383 151.957 379.395 149.621 379.649C142.179 380.451 134.687 381.973 127.398 384.367C127.322 385.258 127.252 386.156 127.252 387.047C127.252 407.988 144.223 424.961 165.16 424.961C186.441 424.949 203.647 407.364 203.017 385.908Z" fill="#FDC7BF"/>
<path d="M130.021 385.959C130.021 385.15 130.085 384.348 130.149 383.539C129.232 383.813 128.309 384.055 127.392 384.354C127.316 385.246 127.246 386.143 127.246 387.035C127.246 407.975 144.217 424.949 165.154 424.949C165.797 424.949 166.434 424.93 167.064 424.898C146.432 423.892 130.021 406.848 130.021 385.959Z" fill="#FDC7BF"/>
<path d="M176.466 365.394C172.921 366.769 169.076 367.552 165.04 367.552C161.042 367.552 157.235 366.782 153.715 365.426V369.946C157.235 371.296 161.042 372.073 165.04 372.073C169.076 372.073 172.914 371.29 176.466 369.914V365.394Z" fill="#FDC7BF"/>
<path d="M114.374 568.271H217.054L204.577 386.392C198.371 383.832 191.763 382.049 184.805 380.923L167.064 402.996L146.407 380.031C138.335 381.133 130.002 382.922 121.389 386.252L114.374 568.271Z" fill="white"/>
<path d="M163.811 413.775L159.214 460.182L174.206 466.416L167.535 413.011L163.811 413.775Z" fill="#323D50"/>
<path d="M165.712 403.642L158.65 410.706L165.712 417.769L172.775 410.706L165.712 403.642Z" fill="#323D50"/>
<path d="M261.157 504.4C266.778 504.4 297.359 502.547 347.502 466.014L324.14 433.92C307.283 446.176 285.69 468.084 261.711 464.69C237.731 461.297 236.617 408.758 219.824 394.961C219.321 394.548 210.192 388.162 202.973 385.819L167.07 454.796L127.399 384.361C127.399 384.361 42.2307 408.809 30.6258 453.058C25.3931 473.018 30.6385 494.888 45.8082 516.312C55.9617 530.656 67.1082 540.021 68.3431 541.047L93.8191 510.193C93.8191 510.193 65.434 476.819 69.0243 463.13C72.621 449.404 103.19 438.071 116.118 433.627C107.111 529.701 100.023 655.172 101.5 655H139.5L162.952 558.982L189 655H235.5C230.051 555.392 226.062 547.897 214.546 474.024C214.54 474.024 240.977 504.431 261.157 504.4Z" fill="#F4EEFE"/>
<path d="M173.551 493.13L171.539 499.917L135.146 489.132L137.158 482.345L113.464 475.323L81.177 584.315L164.957 609.139L197.245 500.146L173.551 493.13ZM112.026 499.548L119.709 501.827L121.988 494.143L132.352 497.211L130.073 504.896L137.756 507.175L134.688 517.54L127.004 515.261L124.725 522.946L114.362 519.877L116.641 512.192L108.957 509.913L112.026 499.548ZM91.8206 579.623L88.3767 578.604L89.3952 575.16L92.8391 576.178L91.8206 579.623ZM96.9896 581.151L93.5457 580.132L94.5643 576.688L98.0082 577.706L96.9896 581.151ZM102.152 582.685L98.7084 581.666L99.7269 578.222L103.171 579.241L102.152 582.685ZM107.321 584.213L103.877 583.194L104.896 579.75L108.34 580.769L107.321 584.213ZM112.49 585.747L109.046 584.729L110.065 581.284L113.509 582.303L112.49 585.747ZM117.653 587.275L114.209 586.257L115.228 582.812L118.672 583.831L117.653 587.275ZM122.822 588.81L119.378 587.791L120.397 584.347L123.841 585.365L122.822 588.81ZM127.985 590.338L124.541 589.319L125.559 585.875L129.003 586.894L127.985 590.338ZM132.956 591.809L129.71 590.847L130.728 587.403L133.975 588.364L132.956 591.809ZM165.657 584.633L92.9728 563.095L93.9913 559.65L166.676 581.189L165.657 584.633ZM170.54 568.15L97.8554 546.611L98.8739 543.167L171.559 564.705L170.54 568.15ZM175.13 552.647L102.445 531.108L103.464 527.664L176.148 549.202L175.13 552.647ZM155.822 533.215L163.735 506.507L186.563 513.268L178.65 539.977L155.822 533.215Z" fill="#EBEEF2"/>
<path d="M174.569 489.686L176.867 481.931L140.474 471.146L138.176 478.901L111.039 470.859L76.7142 586.741L167.382 613.602L201.707 497.721L174.569 489.686ZM164.957 609.145L81.1767 584.321L113.464 475.329L137.157 482.351L135.146 489.138L171.539 499.924L173.551 493.137L197.244 500.159L164.957 609.145Z" fill="#B7BEC7"/>
<path d="M104.877 579.777L103.857 583.22L107.3 584.24L108.319 580.797L104.877 579.777Z" fill="#B7BEC7"/>
<path d="M110.034 581.269L109.015 584.712L112.457 585.732L113.476 582.289L110.034 581.269Z" fill="#B7BEC7"/>
<path d="M120.416 584.366L119.396 587.809L122.838 588.83L123.859 585.387L120.416 584.366Z" fill="#B7BEC7"/>
<path d="M125.546 585.898L124.526 589.341L127.968 590.361L128.988 586.918L125.546 585.898Z" fill="#B7BEC7"/>
<path d="M130.715 587.399L129.695 590.842L132.942 591.804L133.962 588.361L130.715 587.399Z" fill="#B7BEC7"/>
<path d="M99.7512 578.219L98.7308 581.662L102.173 582.683L103.194 579.24L99.7512 578.219Z" fill="#B7BEC7"/>
<path d="M115.247 582.831L114.226 586.274L117.669 587.294L118.689 583.852L115.247 582.831Z" fill="#B7BEC7"/>
<path d="M89.3693 575.142L88.35 578.585L91.7924 579.605L92.8116 576.162L89.3693 575.142Z" fill="#B7BEC7"/>
<path d="M94.5863 576.692L93.5659 580.135L97.0083 581.156L98.0287 577.713L94.5863 576.692Z" fill="#B7BEC7"/>
<path d="M103.465 527.69L102.445 531.133L175.132 552.674L176.152 549.231L103.465 527.69Z" fill="#B7BEC7"/>
<path d="M98.8741 543.195L97.8541 546.638L170.541 568.179L171.561 564.736L98.8741 543.195Z" fill="#B7BEC7"/>
<path d="M93.9912 559.673L92.9712 563.116L165.658 584.657L166.678 581.214L93.9912 559.673Z" fill="#B7BEC7"/>
<path d="M114.368 519.877L124.731 522.946L127.004 515.261L134.694 517.54L137.762 507.175L130.078 504.896L132.351 497.211L121.994 494.143L119.715 501.827L112.025 499.548L108.957 509.913L116.647 512.192L114.368 519.877Z" fill="#B7BEC7"/>
<path d="M163.739 506.53L155.827 533.237L178.654 540.002L186.566 513.295L163.739 506.53Z" fill="#FCFEFF"/>
<path d="M149.914 418.983L166.103 406.791L181.623 418.983L196.951 385.481L191.61 383.565L166.071 402.149L144.93 381.165L134.216 383.514L149.914 418.983Z" fill="#F4F1F2"/>
<path d="M151.722 415.883L166.046 404.588L179.777 415.883L194.571 381.26L183.66 378.096L166.02 400.278L146.159 378.096L136.661 379.993L151.722 415.883Z" fill="white"/>
<path d="M149.73 444.501H123.598V447.71H149.73V444.501Z" fill="#DCD7F6"/>
<path d="M110.263 465.887C111.971 465.59 113.114 463.964 112.816 462.256C112.519 460.548 110.893 459.405 109.186 459.703C107.478 460 106.335 461.626 106.632 463.334C106.93 465.042 108.556 466.185 110.263 465.887Z" fill="#424973"/>
<path d="M131.753 465.772C131.989 464.053 133.567 462.85 135.286 463.086C137.005 463.321 138.208 464.9 137.972 466.619C137.737 468.338 136.158 469.542 134.439 469.306C132.721 469.077 131.518 467.491 131.753 465.772Z" fill="#424973"/>
<path d="M144.676 468.644L137.826 467.708L138.119 465.537L142.798 466.173L147.725 429.966C149.266 418.633 139.819 402.608 130.875 401.392C121.931 400.176 108.544 413.087 106.997 424.42L102.07 460.628L106.748 461.265L106.456 463.436L99.606 462.5L104.832 424.121C106.538 411.572 121.065 397.839 131.18 399.214C141.289 400.59 151.621 417.71 149.908 430.259L144.676 468.644Z" fill="#424973"/>
<path d="M134.553 390.559L130.232 389.971L128.974 399.213L133.295 399.801L134.553 390.559Z" fill="#424973"/>
<path d="M193.693 457.254L191.522 456.961L191.707 455.586C194.578 434.524 197.544 412.75 195.807 395.305C193.871 375.842 186.162 365.458 172.228 363.567C140.762 359.282 133.746 389.212 133.46 390.492L131.321 390.021C131.397 389.69 139.036 356.837 172.527 361.396C187.614 363.452 195.94 374.473 197.99 395.095C199.747 412.795 196.768 434.703 193.878 455.885L193.693 457.254Z" fill="#424973"/>
<path d="M199.784 465.263C200.396 460.768 197.251 456.63 192.757 456.019C188.262 455.407 184.125 458.553 183.513 463.047C182.902 467.542 186.047 471.681 190.541 472.292C195.029 472.909 199.173 469.758 199.784 465.263Z" fill="#424973"/>
<path d="M197.562 464.964C198.008 461.698 195.716 458.686 192.451 458.24C189.185 457.795 186.174 460.087 185.728 463.353C185.283 466.619 187.574 469.631 190.84 470.076C194.106 470.522 197.117 468.23 197.562 464.964Z" fill="#F8F9FA"/>
<path d="M96.8867 522.825C98.3954 519.247 109.485 526.696 111.293 521.985C113.094 517.267 91.5331 513.052 91.5331 513.052L70.9652 537.997C76.8217 544.478 116.442 553.494 122.191 543.16C127.933 532.833 95.378 526.403 96.8867 522.825Z" fill="#FDC7BF"/>
<path d="M177.262 300.167H153.779C148.794 300.167 144.281 298.142 141.015 294.876C138.284 299.282 136.68 304.464 136.68 310.029V335.241C154.294 352.501 158.413 334.821 165.517 334.821C172.622 334.821 176.74 352.501 194.354 335.241V310.029C194.354 304.464 192.75 299.282 190.019 294.876C186.754 298.148 182.247 300.167 177.262 300.167Z" fill="#FDC7BF"/>
<path d="M165.517 334.827C158.413 334.827 154.294 352.508 136.68 335.248V339.399C136.68 355.328 149.59 368.24 165.517 368.24C181.445 368.24 194.354 355.328 194.354 339.399V335.248C176.74 352.501 172.622 334.827 165.517 334.827Z" fill="#313548"/>
<path d="M165.517 261.877C151.538 255.708 141.69 260.788 139.405 263.1C139.405 263.1 146.057 265.735 146.102 267.996C146.102 267.996 137.19 265.322 132.657 267.996C132.657 267.996 138.622 271.389 138.444 275.368C138.444 275.368 127.418 273.051 124.273 276.896C124.273 276.896 131.632 282.582 131.619 294.87L131.658 294.838C131.651 295.156 131.607 295.468 131.607 295.793V312.932C131.607 315.734 133.879 318.006 136.68 318.006V310.023C136.68 304.458 138.284 299.275 141.015 294.87C144.281 298.136 148.794 300.16 153.779 300.16H177.262C182.247 300.16 186.76 298.136 190.026 294.87C192.757 299.275 194.361 304.458 194.361 310.023V318.006C197.162 318.006 199.434 315.734 199.434 312.932V295.793C199.428 277.062 184.245 261.877 165.517 261.877Z" fill="#424973"/>
<path d="M131.606 312.939V312.888C129.843 314.352 128.691 316.536 128.691 319.006V330.415C128.691 334.808 132.237 338.367 136.616 338.399V318.007C133.847 317.975 131.606 315.721 131.606 312.939Z" fill="#FDC7BF"/>
<path d="M136.616 319.14C136.578 319.14 136.54 319.134 136.502 319.134C133.783 319.134 131.581 320.432 131.581 325.825C131.581 331.224 133.783 332.523 136.502 332.523C136.54 332.523 136.578 332.516 136.616 332.516V319.14Z" fill="#FDC7BF"/>
<path d="M199.428 312.939V312.888C201.191 314.352 202.343 316.536 202.343 319.006V330.415C202.343 334.808 198.797 338.367 194.418 338.399V318.007C197.187 317.975 199.428 315.721 199.428 312.939Z" fill="#FDC7BF"/>
<path d="M194.418 319.14C194.456 319.14 194.494 319.134 194.532 319.134C197.25 319.134 199.453 320.432 199.453 325.825C199.453 331.224 197.25 332.523 194.532 332.523C194.494 332.523 194.456 332.516 194.418 332.516V319.14Z" fill="#FDC7BF"/>
<path d="M136.552 325.787L141.231 353.807C153.371 373.092 177.682 373.066 189.809 353.762L194.481 325.812C175.645 331.523 156.35 331.663 136.552 325.787Z" fill="#FFFDFE"/>
<path d="M142.129 354.303C139.595 354.303 136.794 352.61 134.248 349.528C129.245 343.48 124.878 331.6 127.125 319.821C128.073 314.842 129.563 312.06 131.543 311.551C132.428 311.321 133.809 311.455 135.388 313.359C138.049 316.574 139.876 323.393 138.157 327.035C138.023 327.315 137.692 327.436 137.406 327.302C137.125 327.168 137.005 326.837 137.138 326.551C138.641 323.361 136.954 317.02 134.516 314.072C133.853 313.27 132.848 312.359 131.816 312.633C130.957 312.856 129.353 314.104 128.226 320.025C126.049 331.447 130.27 342.951 135.114 348.802C137.444 351.617 139.939 353.17 142.129 353.17C142.441 353.17 142.689 353.425 142.689 353.73C142.689 354.055 142.435 354.303 142.129 354.303Z" fill="#F4F1F2"/>
<path d="M189.064 354.303C191.598 354.303 194.399 352.61 196.945 349.528C201.948 343.48 206.315 331.6 204.068 319.821C203.12 314.842 201.63 312.06 199.65 311.551C198.765 311.321 197.384 311.455 195.805 313.359C193.144 316.574 191.317 323.393 193.036 327.035C193.17 327.315 193.501 327.436 193.787 327.302C194.068 327.168 194.188 326.837 194.055 326.551C192.552 323.361 194.239 317.02 196.677 314.072C197.34 313.27 198.345 312.359 199.377 312.633C200.236 312.856 201.84 314.104 202.967 320.025C205.144 331.447 200.923 342.951 196.079 348.802C193.749 351.617 191.254 353.17 189.064 353.17C188.752 353.17 188.504 353.425 188.504 353.73C188.504 354.055 188.752 354.303 189.064 354.303Z" fill="#F4F1F2"/>
<path d="M141.034 352.616L141.225 353.743C153.352 373.066 177.682 373.073 189.809 353.762L193.017 334.541C176.644 355.749 151.881 359.378 141.034 352.616Z" fill="#F4F1F2"/>
<path d="M165.886 332.765H165.141V364.025H165.886V332.765Z" fill="#E9E8EA"/>
<path d="M177.511 356.666C177.173 356.666 176.899 356.347 176.899 355.952C176.899 355.558 177.173 355.239 177.511 355.239C182.393 355.239 186.365 350.872 186.365 345.505C186.365 345.11 186.639 344.792 186.976 344.792C187.314 344.792 187.588 345.11 187.588 345.505C187.588 351.661 183.068 356.666 177.511 356.666Z" fill="#E9E8EA"/>
<path d="M177.854 353.679C177.517 353.679 177.243 353.361 177.243 352.966C177.243 352.572 177.517 352.253 177.854 352.253C180.878 352.253 183.335 349.554 183.335 346.237C183.335 345.842 183.609 345.524 183.946 345.524C184.284 345.524 184.558 345.842 184.558 346.237C184.564 350.343 181.559 353.679 177.854 353.679Z" fill="#E9E8EA"/>
<path d="M151.099 336.406C143.976 336.406 138.176 330.606 138.176 323.482C138.176 316.357 143.976 310.557 151.099 310.557C158.222 310.557 164.021 316.357 164.021 323.482C164.021 330.606 158.222 336.406 151.099 336.406ZM151.099 313.251C145.459 313.251 140.869 317.841 140.869 323.482C140.869 329.123 145.459 333.713 151.099 333.713C156.739 333.713 161.329 329.123 161.329 323.482C161.329 317.835 156.739 313.251 151.099 313.251Z" fill="#18171C"/>
<path d="M179.936 336.406C172.813 336.406 167.014 330.606 167.014 323.482C167.014 316.357 172.813 310.557 179.936 310.557C187.06 310.557 192.859 316.357 192.859 323.482C192.859 330.606 187.06 336.406 179.936 336.406ZM179.936 313.251C174.296 313.251 169.706 317.841 169.706 323.482C169.706 329.123 174.296 333.713 179.936 333.713C185.576 333.713 190.166 329.123 190.166 323.482C190.166 317.835 185.576 313.251 179.936 313.251Z" fill="#18171C"/>
<path d="M171.763 314.575H159.19V316.93H171.763V314.575Z" fill="#18171C"/>
<path d="M112.82 463.2C113.056 461.481 111.853 459.896 110.134 459.667C108.415 459.431 106.837 460.634 106.601 462.353C106.366 464.072 107.569 465.658 109.287 465.887C111.006 466.123 112.591 464.919 112.82 463.2Z" fill="#EBEEF2"/>
<path d="M486.799 686.743C590.298 686.743 674.201 680.88 674.201 673.647C674.201 666.414 590.298 660.551 486.799 660.551C383.299 660.551 299.396 666.414 299.396 673.647C299.396 680.88 383.299 686.743 486.799 686.743Z" fill="#EBEEF2"/>
<path d="M571.228 449.741H402.369C370.75 449.741 345.121 475.374 345.121 506.997V556.651H628.476V506.997C628.476 475.374 602.847 449.741 571.228 449.741Z" fill="#FEEACF"/>
<path d="M552.01 463.614H421.587C394.074 463.614 371.768 485.923 371.768 513.44V556.651H601.822V513.44C601.828 485.923 579.523 463.614 552.01 463.614Z" fill="#FEEACF"/>
<path d="M583.502 556.651H389.02V648.377H583.502V556.651Z" fill="#FEEACF"/>
<path d="M583.502 556.651H389.02V598.449H583.502V556.651Z" fill="#FEEACF"/>
<path d="M578.473 598.875H395.119V603.606H578.473V598.875Z" fill="#FEEACF"/>
<path d="M359.082 508.792H353.155C336.025 508.792 322.141 522.678 322.141 539.811V648.377H390.09V539.805C390.09 522.678 376.206 508.792 359.082 508.792Z" fill="#FEEACF"/>
<path d="M358.395 524.888H353.837C340.66 524.888 329.978 535.571 329.978 548.75V632.276H382.254V548.75C382.254 535.571 371.572 524.888 358.395 524.888Z" fill="#FEEACF"/>
<path d="M366.631 648.594H345.605V669.623H366.631V648.594Z" fill="#424973"/>
<path d="M614.515 508.792H620.442C637.572 508.792 651.456 522.678 651.456 539.811V648.377H583.501V539.805C583.501 522.678 597.385 508.792 614.515 508.792Z" fill="#FEEACF"/>
<path d="M615.343 528.218H619.62C631.983 528.218 642.003 538.239 642.003 550.603V628.952H592.967V550.603C592.96 538.239 602.98 528.218 615.343 528.218Z" fill="#FEEACF"/>
<path d="M606.964 669.62H627.99V648.591H606.964V669.62Z" fill="#424973"/>
<path d="M395.118 556.651H390.089V648.74H395.118V556.651Z" fill="#FEEACF"/>
<path d="M583.502 556.651H578.473V648.74H583.502V556.651Z" fill="#FEEACF"/>
<path d="M490.522 640.432L484.029 660.933L530.474 661.162V650.122L490.522 640.432Z" fill="#FDC7BF"/>
<path d="M548.82 534.215L435.974 536.978V570.194H548.82V534.215Z" fill="#424973"/>
<path d="M534.968 543.122L484.335 636.223C484.137 636.58 484.271 637.032 484.634 637.229L493.909 642.272L552.671 534.209C545.701 533.228 538.533 536.571 534.968 543.122Z" fill="#424973"/>
<path d="M534.968 543.122L484.335 636.223C484.137 636.58 484.271 637.032 484.634 637.229L493.909 642.272L552.671 534.209C545.701 533.228 538.533 536.571 534.968 543.122Z" fill="#424973"/>
<path d="M558.54 536.157C556.662 535.132 554.676 534.495 552.671 534.215L493.908 642.278L513.871 653.133C514.228 653.331 514.68 653.197 514.877 652.834L565.511 559.733C570.088 551.297 566.968 540.741 558.54 536.157Z" fill="#424973"/>
<path d="M499.18 431.195L481.865 455.337L463.952 430.361C460.432 430.851 455.288 431.768 450.202 433.423L463.449 545.102H499.779L513.141 434.072C506.132 432.162 499.18 431.195 499.18 431.195Z" fill="#AAB8FD"/>
<path d="M437.037 440.63C427.787 449.881 330.69 503.903 330.69 503.903L349.577 524.678C350.061 529.026 434.802 489.641 437.043 484.567C437.864 482.708 438.164 516.324 437.508 533.833C437.279 539.983 442.2 545.096 448.355 545.096H463.455L450.208 433.417C445.236 435.034 440.322 437.345 437.037 440.63Z" fill="#0367FF"/>
<path d="M423.937 539.047L433.25 644.621C433.288 645.028 433.645 645.328 434.052 645.296L444.568 644.366L433.759 521.832C427.406 524.869 423.281 531.617 423.937 539.047Z" fill="#424973"/>
<path d="M423.937 539.047L433.25 644.621C433.288 645.028 433.645 645.328 434.052 645.296L444.568 644.366L433.759 521.832C427.406 524.869 423.281 531.617 423.937 539.047Z" fill="#424973"/>
<path d="M439.724 520.208C437.592 520.399 435.587 520.966 433.76 521.838L444.569 644.373L467.199 642.373C467.606 642.335 467.906 641.979 467.874 641.571L458.561 535.998C457.714 526.429 449.279 519.361 439.724 520.208Z" fill="#424973"/>
<path d="M526.693 440.63C524.675 437.823 518.889 435.632 513.141 434.073L499.779 545.096H526.693C526.693 545.096 550.527 521.883 552.016 504.126C553.506 486.369 531.181 446.857 526.693 440.63ZM522.804 509.518C522.804 509.518 519.907 486.662 522.804 484.892C525.7 483.122 533.435 500.057 533.435 500.057L522.804 509.518Z" fill="#0367FF"/>
<path d="M457.022 389.589C461.805 388.46 464.767 383.666 463.638 378.882C462.508 374.098 457.715 371.136 452.932 372.265C448.149 373.395 445.187 378.189 446.316 382.973C447.446 387.757 452.239 390.719 457.022 389.589Z" fill="#FDC7BF"/>
<path d="M456.217 386.182C459.119 385.497 460.916 382.589 460.231 379.687C459.545 376.785 456.638 374.988 453.736 375.673C450.835 376.358 449.038 379.266 449.723 382.168C450.409 385.07 453.316 386.867 456.217 386.182Z" fill="#FDC7BF"/>
<path d="M517.087 383.022C518.235 378.242 515.291 373.436 510.511 372.288C505.732 371.141 500.927 374.085 499.779 378.865C498.632 383.645 501.576 388.451 506.355 389.598C511.135 390.746 515.939 387.802 517.087 383.022Z" fill="#FDC7BF"/>
<path d="M513.692 382.208C514.387 379.309 512.6 376.394 509.7 375.699C506.801 375.004 503.887 376.792 503.192 379.691C502.497 382.591 504.284 385.505 507.184 386.2C510.083 386.895 512.997 385.108 513.692 382.208Z" fill="#FDC7BF"/>
<path d="M481.82 344.651C468.019 344.651 456.828 355.844 456.828 369.647V391.581C456.828 405.384 468.019 416.576 481.82 416.576C495.621 416.576 506.812 405.384 506.812 391.581V369.647C506.812 355.844 495.621 344.651 481.82 344.651Z" fill="#FDC7BF"/>
<path d="M481.699 403.041C484.958 403.041 487.6 400.399 487.6 397.139H475.804C475.804 400.405 478.446 403.041 481.699 403.041Z" fill="white"/>
<path d="M490.974 390.524H472.666C471.559 390.524 470.661 391.422 470.661 392.529V395.14C470.661 396.248 471.559 397.145 472.666 397.145H490.974C492.082 397.145 492.98 396.248 492.98 395.14V392.529C492.98 391.422 492.082 390.524 490.974 390.524Z" fill="#424973"/>
<path d="M453.518 368.393V395.203C453.518 396.273 454.383 397.145 455.459 397.145H458.196C459.266 397.145 460.138 396.279 460.138 395.203V368.393C460.138 367.323 459.272 366.451 458.196 366.451H455.459C454.39 366.458 453.518 367.323 453.518 368.393Z" fill="#424973"/>
<path d="M510.123 368.393V395.203C510.123 396.273 509.257 397.145 508.181 397.145H505.444C504.374 397.145 503.502 396.279 503.502 395.203V368.393C503.502 367.323 504.368 366.451 505.444 366.451H508.181C509.251 366.458 510.123 367.323 510.123 368.393Z" fill="#424973"/>
<path d="M470.197 384.532C471.575 384.532 472.692 382.523 472.692 380.044C472.692 377.565 471.575 375.555 470.197 375.555C468.819 375.555 467.702 377.565 467.702 380.044C467.702 382.523 468.819 384.532 470.197 384.532Z" fill="#18171C"/>
<path d="M475.678 366.483H464.722C463.901 366.483 463.239 367.145 463.239 367.966V370.825C463.239 371.646 463.907 372.309 464.722 372.309H475.678C476.499 372.309 477.161 371.64 477.161 370.825V367.966C477.161 367.145 476.499 366.483 475.678 366.483Z" fill="#424973"/>
<path d="M493.203 384.532C494.581 384.532 495.698 382.523 495.698 380.044C495.698 377.565 494.581 375.555 493.203 375.555C491.825 375.555 490.708 377.565 490.708 380.044C490.708 382.523 491.825 384.532 493.203 384.532Z" fill="#18171C"/>
<path d="M487.728 366.483H498.684C499.505 366.483 500.167 367.145 500.167 367.966V370.825C500.167 371.646 499.498 372.309 498.684 372.309H487.728C486.907 372.309 486.245 371.64 486.245 370.825V367.966C486.239 367.145 486.907 366.483 487.728 366.483Z" fill="#424973"/>
<path d="M456.026 385.545L460.196 406.02C471.005 420.116 492.655 420.091 503.451 405.989L507.608 385.564C490.847 389.741 473.659 389.842 456.026 385.545Z" fill="#FFFDFE"/>
<path d="M460.017 405.155L460.183 405.976C470.985 420.097 492.648 420.104 503.451 405.995L506.309 391.95C491.732 407.44 469.68 410.095 460.017 405.155Z" fill="#F4F1F2"/>
<path d="M482.151 390.645H481.489V413.489H482.151V390.645Z" fill="#E9E8EA"/>
<path d="M492.502 408.109C492.202 408.109 491.954 407.88 491.954 407.587C491.954 407.294 492.196 407.065 492.502 407.065C496.849 407.065 500.389 403.875 500.389 399.953C500.389 399.666 500.631 399.431 500.936 399.431C501.242 399.431 501.484 399.66 501.484 399.953C501.477 404.454 497.448 408.109 492.502 408.109Z" fill="#E9E8EA"/>
<path d="M492.813 405.925C492.514 405.925 492.266 405.696 492.266 405.403C492.266 405.117 492.508 404.881 492.813 404.881C495.506 404.881 497.696 402.907 497.696 400.488C497.696 400.201 497.938 399.966 498.243 399.966C498.542 399.966 498.791 400.195 498.791 400.488C498.784 403.487 496.104 405.925 492.813 405.925Z" fill="#E9E8EA"/>
<path d="M499.18 431.194L495.303 429.864C491.14 429.278 488.046 425.713 488.046 421.511V416.01C486.041 416.379 483.972 416.576 481.865 416.576C479.751 416.576 477.689 416.373 475.684 416.01V421.511C475.684 425.713 472.59 429.278 468.427 429.864C468.427 429.864 466.676 429.985 463.952 430.36L481.865 455.337L499.18 431.194Z" fill="#FDC7BF"/>
<path d="M481.865 419.454C483.978 419.454 486.041 419.257 488.046 418.9V416.01C486.041 416.379 483.972 416.576 481.865 416.576C479.752 416.576 477.689 416.373 475.684 416.01V418.9C477.689 419.263 479.752 419.454 481.865 419.454Z" fill="#FDC7BF"/>
<path d="M526.477 545.331L505.158 525.429L522.587 509.289L523.02 509.754L506.094 525.429L526.91 544.867L526.477 545.331Z" fill="#9170D2"/>
<path d="M529 543.79C532.9 535.339 529.212 525.325 520.762 521.425C512.312 517.524 502.3 521.213 498.4 529.664C494.5 538.115 498.188 548.129 506.638 552.029C515.088 555.93 525.1 552.241 529 543.79Z" fill="#FDC7BF"/>
<path d="M525.369 524.614C526.343 526.728 526.896 529.077 526.909 531.554C526.966 540.862 519.468 548.451 510.161 548.502C505.571 548.528 501.401 546.719 498.346 543.759C501.026 549.578 506.927 553.608 513.751 553.57C523.058 553.513 530.557 545.93 530.5 536.622C530.474 531.904 528.507 527.657 525.369 524.614Z" fill="#FDC7BF"/>
<path d="M343.358 531.189C352.35 528.789 357.693 519.552 355.293 510.559C352.893 501.567 343.658 496.222 334.667 498.623C325.675 501.023 320.332 510.259 322.732 519.252C325.132 528.245 334.366 533.589 343.358 531.189Z" fill="#FDC7BF"/>
<path d="M350.705 502.795C351.679 504.909 352.232 507.258 352.245 509.735C352.303 519.043 344.804 526.632 335.497 526.683C330.907 526.709 326.737 524.9 323.682 521.94C326.362 527.759 332.263 531.789 339.087 531.751C348.394 531.694 355.893 524.111 355.835 514.803C355.81 510.091 353.843 505.838 350.705 502.795Z" fill="#FDC7BF"/>
<path d="M481.865 455.337L501.364 428.151L505.629 431.672C505.629 431.672 495.157 465.11 493.68 465.11C492.204 465.11 481.865 455.337 481.865 455.337Z" fill="#F1F1F6"/>
<path d="M499.18 431.195L481.865 455.337L499.18 431.195Z" fill="#EBB392"/>
<path d="M505.438 432.277C504.012 436.797 495.043 465.104 493.68 465.104C492.204 465.104 481.865 455.331 481.865 455.331C481.865 455.331 492.713 468.185 494.266 468.185C495.609 468.185 504.05 439.943 506.272 432.443C505.985 432.392 505.705 432.334 505.438 432.277Z" fill="#EBB392"/>
<path d="M481.865 455.337L462.367 427.215L458.102 430.736C458.102 430.736 468.574 465.11 470.05 465.11C471.527 465.11 481.865 455.337 481.865 455.337Z" fill="#F1F1F6"/>
<path d="M458.299 431.341C459.725 435.861 468.695 465.11 470.057 465.11C471.534 465.11 481.872 455.337 481.872 455.337C481.872 455.337 471.024 468.192 469.471 468.192C468.128 468.192 459.687 439.013 457.465 431.513C457.745 431.449 458.026 431.392 458.299 431.341Z" fill="#EBB392"/>
<path d="M481.559 545.408C473.341 514.026 473.341 483.689 481.559 455.248L482.17 455.427C473.978 483.759 473.984 513.982 482.17 545.255L481.559 545.408Z" fill="#F1F1F6"/>
<path d="M484.386 484.764C484.386 483.37 483.259 482.243 481.865 482.243C480.471 482.243 479.344 483.37 479.344 484.764C479.344 486.159 480.471 487.286 481.865 487.286C483.259 487.286 484.386 486.152 484.386 484.764Z" fill="#F1F1F6"/>
<path d="M481.865 504.266C483.257 504.266 484.386 503.137 484.386 501.744C484.386 500.352 483.257 499.223 481.865 499.223C480.473 499.223 479.344 500.352 479.344 501.744C479.344 503.137 480.473 504.266 481.865 504.266Z" fill="#F1F1F6"/>
<path d="M481.865 521.246C483.257 521.246 484.386 520.117 484.386 518.725C484.386 517.332 483.257 516.203 481.865 516.203C480.473 516.203 479.344 517.332 479.344 518.725C479.344 520.117 480.473 521.246 481.865 521.246Z" fill="#F1F1F6"/>
<path d="M450.711 635.223C438.896 635.293 429.385 647.059 429.468 661.505L472.259 661.251C472.176 646.805 462.532 635.153 450.711 635.223Z" fill="#062187"/>
<path d="M466.345 661.283C464.639 648.829 455.753 639.349 445.096 639.413C442.238 639.432 439.514 640.139 437.031 641.393C432.371 646.219 429.43 653.439 429.481 661.493L466.345 661.283Z" fill="#062187"/>
<path d="M472.838 661.244L428.901 661.505C426.934 661.518 425.349 663.123 425.362 665.09L425.368 666.287C425.381 668.254 426.985 669.84 428.952 669.827L472.889 669.566C474.856 669.553 476.441 667.949 476.428 665.981L476.422 664.784C476.409 662.823 474.805 661.238 472.838 661.244Z" fill="#18171C"/>
<path d="M523.777 635.223C511.962 635.293 502.452 647.059 502.535 661.505L545.326 661.251C545.243 646.805 535.592 635.153 523.777 635.223Z" fill="#062187"/>
<path d="M539.406 661.283C537.7 648.829 528.813 639.349 518.157 639.413C515.298 639.432 512.574 640.139 510.091 641.393C505.431 646.219 502.49 653.439 502.541 661.493L539.406 661.283Z" fill="#062187"/>
<path d="M545.899 661.244L480.331 661.505C478.364 661.518 476.779 663.123 476.792 665.09L476.798 666.287C476.811 668.254 478.415 669.84 480.382 669.827L545.95 669.566C547.917 669.553 549.502 667.949 549.489 665.981L549.483 664.784C549.47 662.823 547.872 661.238 545.899 661.244Z" fill="#18171C"/>
<path d="M687.359 616.231L681.012 622.757L670.967 622.248L664.181 614.869L668.205 603.39L659.846 608.636L653.678 599.226L664.347 593.044L650.304 591.21L644.613 581.985L655.148 573.319L642.34 574.007L637.528 565.132L642.76 558.275L637.267 559.039C637.267 559.039 631.321 542.568 632.161 541.066C633.002 539.557 641.901 541.842 641.901 541.842L642.576 547.712L644.492 547.993L645.249 542.383L649.043 543.81L648.942 551.17L651.462 553.067L657.675 547.973L664.073 552.666L659.057 559.427L667.912 557.695L677.078 568.392L680.968 589.325L688.62 584.729L692.91 590.834L687.206 597.138L688.721 599.563L694.61 594.871L697.468 601.664L692.108 605.281L699.874 605.045L698.162 612.66L687.359 616.231Z" fill="#456B71"/>
<path d="M687.492 644.627C681.311 617.206 672.985 594.648 662.748 577.585C653.607 562.343 645.892 556.575 643.747 555.168L643.899 554.932C646.057 556.346 653.817 562.146 662.99 577.439C673.239 594.534 681.579 617.116 687.766 644.563L687.492 644.627Z" fill="#6C8C8F"/>
<path d="M700.6 628.494L689.32 631.938L678.231 625.094L675.124 612.475L686.856 601.951L674.087 602.689L672.954 588.148L688.932 587.785L674.131 576.936L673.425 562.904L690.797 559.637L675.818 552.424L675.895 539.34L686.118 534.82L679.402 532.26C679.402 532.26 682.935 509.843 684.826 508.659C686.723 507.475 695.406 515.624 695.406 515.624L692.503 522.71L694.502 524.226L698.869 518.324L702.287 522.309L697.583 530.599L699.257 534.33L709.493 532.426L713.828 541.753L703.904 546.299L715.044 549.858L718.781 567.723L710.13 593.922L721.69 593.477L722.747 603.091L712.332 606.688L712.536 610.387L722.155 608.738L721.155 618.237L712.81 618.995L721.773 623.579L715.076 631.155L700.6 628.494Z" fill="#6C8C8F"/>
<path d="M690.39 643.99L690.091 643.959C696.081 591.828 697.131 558.288 693.496 535.214L693.795 535.17C697.43 558.269 696.38 591.828 690.39 643.99Z" fill="#B4E5E5"/>
<path d="M701.014 632.059L691.363 631.2L685.309 624.438L691.102 620.013L688.467 612.927L694.68 600.499L703.56 596.405L699.715 590.44L710.919 573.237L719.767 572.454L717.501 563.33C717.501 563.33 728.45 547.935 732.028 547.935C735.605 547.935 735.663 562.783 735.663 562.783L728.769 568.112L728.851 571.849C728.851 571.849 737.216 570.079 736.993 573.122C736.77 576.165 735.064 586.091 735.064 586.091L717.775 605.701C717.775 605.701 720.264 623.49 718.889 624.941C717.514 626.393 711.931 622.592 711.931 622.592L713.497 626.609L710.295 628.456L708.029 624.534L706.253 628.736L709.837 632.626L705.712 636.319L701.014 632.059Z" fill="#50D5B8"/>
<path d="M693.483 650.809L693.12 650.758C696.978 621.942 706.189 597.348 720.5 577.649L720.792 577.865C706.527 597.513 697.335 622.057 693.483 650.809Z" fill="#B4E5E5"/>
<path d="M709.054 643.449H671.413V644.5H709.054V643.449Z" fill="#FADBAE"/>
<path d="M690.236 644.5H673.449C673.405 658.367 674.583 668.42 678.275 670.661H690.236H702.197C705.89 668.426 707.067 658.367 707.023 644.5H690.236Z" fill="#ECDFC9"/>
<path d="M597.191 285.979H671.385V175.198H597.191V285.979Z" fill="#EBEEF2"/>
<path d="M598.073 176.512V284.664H670.503V176.512H598.073ZM601.02 179.517H667.556V281.659H601.02V179.517Z" fill="#FCFEFF"/>
<path d="M610.803 258.63H651.327V218.099H610.803V258.63Z" fill="#FCFEFF"/>
<path d="M610.806 218.1H651.33V258.63L610.806 218.1Z" fill="#DEE0E5"/>
<path d="M644.804 228.484C651.966 228.484 657.771 222.677 657.771 215.515C657.771 208.352 651.966 202.545 644.804 202.545C637.643 202.545 631.837 208.352 631.837 215.515C631.837 222.677 637.643 228.484 644.804 228.484Z" fill="#FCFEFF"/>
<path d="M71.5763 227L65.9123 219.56V227H61.8083V210.152H65.9123V217.544L71.5283 210.152H76.3523L69.8243 218.408L76.5923 227H71.5763ZM80.6067 212.216C79.8867 212.216 79.2947 212.008 78.8307 211.592C78.3827 211.16 78.1587 210.632 78.1587 210.008C78.1587 209.368 78.3827 208.84 78.8307 208.424C79.2947 207.992 79.8867 207.776 80.6067 207.776C81.3107 207.776 81.8867 207.992 82.3347 208.424C82.7987 208.84 83.0307 209.368 83.0307 210.008C83.0307 210.632 82.7987 211.16 82.3347 211.592C81.8867 212.008 81.3107 212.216 80.6067 212.216ZM82.6467 213.608V227H78.5427V213.608H82.6467ZM93.7808 213.464C95.3488 213.464 96.5968 213.976 97.5248 215C98.4688 216.008 98.9408 217.4 98.9408 219.176V227H94.8608V219.728C94.8608 218.832 94.6288 218.136 94.1648 217.64C93.7008 217.144 93.0768 216.896 92.2928 216.896C91.5088 216.896 90.8848 217.144 90.4208 217.64C89.9568 218.136 89.7248 218.832 89.7248 219.728V227H85.6208V213.608H89.7248V215.384C90.1408 214.792 90.7008 214.328 91.4048 213.992C92.1088 213.64 92.9008 213.464 93.7808 213.464ZM100.977 220.28C100.977 218.904 101.233 217.696 101.745 216.656C102.273 215.616 102.985 214.816 103.881 214.256C104.777 213.696 105.777 213.416 106.881 213.416C107.761 213.416 108.561 213.6 109.281 213.968C110.017 214.336 110.593 214.832 111.009 215.456V209.24H115.113V227H111.009V225.08C110.625 225.72 110.073 226.232 109.353 226.616C108.649 227 107.825 227.192 106.881 227.192C105.777 227.192 104.777 226.912 103.881 226.352C102.985 225.776 102.273 224.968 101.745 223.928C101.233 222.872 100.977 221.656 100.977 220.28ZM111.009 220.304C111.009 219.28 110.721 218.472 110.145 217.88C109.585 217.288 108.897 216.992 108.081 216.992C107.265 216.992 106.569 217.288 105.993 217.88C105.433 218.456 105.153 219.256 105.153 220.28C105.153 221.304 105.433 222.12 105.993 222.728C106.569 223.32 107.265 223.616 108.081 223.616C108.897 223.616 109.585 223.32 110.145 222.728C110.721 222.136 111.009 221.328 111.009 220.304ZM117.266 220.28C117.266 218.904 117.522 217.696 118.034 216.656C118.562 215.616 119.274 214.816 120.17 214.256C121.066 213.696 122.066 213.416 123.17 213.416C124.114 213.416 124.938 213.608 125.642 213.992C126.362 214.376 126.914 214.88 127.298 215.504V213.608H131.402V227H127.298V225.104C126.898 225.728 126.338 226.232 125.618 226.616C124.914 227 124.09 227.192 123.146 227.192C122.058 227.192 121.066 226.912 120.17 226.352C119.274 225.776 118.562 224.968 118.034 223.928C117.522 222.872 117.266 221.656 117.266 220.28ZM127.298 220.304C127.298 219.28 127.01 218.472 126.434 217.88C125.874 217.288 125.186 216.992 124.37 216.992C123.554 216.992 122.858 217.288 122.282 217.88C121.722 218.456 121.442 219.256 121.442 220.28C121.442 221.304 121.722 222.12 122.282 222.728C122.858 223.32 123.554 223.616 124.37 223.616C125.186 223.616 125.874 223.32 126.434 222.728C127.01 222.136 127.298 221.328 127.298 220.304ZM142.603 213.464C144.139 213.464 145.371 213.976 146.299 215C147.227 216.008 147.691 217.4 147.691 219.176V227H143.611V219.728C143.611 218.832 143.379 218.136 142.915 217.64C142.451 217.144 141.827 216.896 141.043 216.896C140.259 216.896 139.635 217.144 139.171 217.64C138.707 218.136 138.475 218.832 138.475 219.728V227H134.371V209.24H138.475V215.408C138.891 214.816 139.459 214.344 140.179 213.992C140.899 213.64 141.707 213.464 142.603 213.464ZM149.847 218.552C149.847 216.888 150.207 215.408 150.927 214.112C151.647 212.8 152.647 211.784 153.927 211.064C155.223 210.328 156.687 209.96 158.319 209.96C160.319 209.96 162.031 210.488 163.455 211.544C164.879 212.6 165.831 214.04 166.311 215.864H161.799C161.463 215.16 160.983 214.624 160.359 214.256C159.751 213.888 159.055 213.704 158.271 213.704C157.007 213.704 155.983 214.144 155.199 215.024C154.415 215.904 154.023 217.08 154.023 218.552C154.023 220.024 154.415 221.2 155.199 222.08C155.983 222.96 157.007 223.4 158.271 223.4C159.055 223.4 159.751 223.216 160.359 222.848C160.983 222.48 161.463 221.944 161.799 221.24H166.311C165.831 223.064 164.879 224.504 163.455 225.56C162.031 226.6 160.319 227.12 158.319 227.12C156.687 227.12 155.223 226.76 153.927 226.04C152.647 225.304 151.647 224.288 150.927 222.992C150.207 221.696 149.847 220.216 149.847 218.552ZM168.008 220.28C168.008 218.904 168.264 217.696 168.776 216.656C169.304 215.616 170.016 214.816 170.912 214.256C171.808 213.696 172.808 213.416 173.912 213.416C174.856 213.416 175.68 213.608 176.384 213.992C177.104 214.376 177.656 214.88 178.04 215.504V213.608H182.144V227H178.04V225.104C177.64 225.728 177.08 226.232 176.36 226.616C175.656 227 174.832 227.192 173.888 227.192C172.8 227.192 171.808 226.912 170.912 226.352C170.016 225.776 169.304 224.968 168.776 223.928C168.264 222.872 168.008 221.656 168.008 220.28ZM178.04 220.304C178.04 219.28 177.752 218.472 177.176 217.88C176.616 217.288 175.928 216.992 175.112 216.992C174.296 216.992 173.6 217.288 173.024 217.88C172.464 218.456 172.184 219.256 172.184 220.28C172.184 221.304 172.464 222.12 173.024 222.728C173.6 223.32 174.296 223.616 175.112 223.616C175.928 223.616 176.616 223.32 177.176 222.728C177.752 222.136 178.04 221.328 178.04 220.304ZM189.217 215.84C189.697 215.104 190.297 214.528 191.017 214.112C191.737 213.68 192.537 213.464 193.417 213.464V217.808H192.289C191.265 217.808 190.497 218.032 189.985 218.48C189.473 218.912 189.217 219.68 189.217 220.784V227H185.113V213.608H189.217V215.84ZM208.003 220.088C208.003 220.472 207.979 220.872 207.931 221.288H198.643C198.707 222.12 198.971 222.76 199.435 223.208C199.915 223.64 200.499 223.856 201.187 223.856C202.211 223.856 202.923 223.424 203.323 222.56H207.691C207.467 223.44 207.059 224.232 206.467 224.936C205.891 225.64 205.163 226.192 204.283 226.592C203.403 226.992 202.419 227.192 201.331 227.192C200.019 227.192 198.851 226.912 197.827 226.352C196.803 225.792 196.003 224.992 195.427 223.952C194.851 222.912 194.563 221.696 194.563 220.304C194.563 218.912 194.843 217.696 195.403 216.656C195.979 215.616 196.779 214.816 197.803 214.256C198.827 213.696 200.003 213.416 201.331 213.416C202.627 213.416 203.779 213.688 204.787 214.232C205.795 214.776 206.579 215.552 207.139 216.56C207.715 217.568 208.003 218.744 208.003 220.088ZM203.803 219.008C203.803 218.304 203.563 217.744 203.083 217.328C202.603 216.912 202.003 216.704 201.283 216.704C200.595 216.704 200.011 216.904 199.531 217.304C199.067 217.704 198.779 218.272 198.667 219.008H203.803Z" fill="white"/>
</svg>
