<svg width="22" height="22" viewBox="0 0 22 22" fill="none" xmlns="http://www.w3.org/2000/svg">
<path d="M21.9245 11.6886L20.4766 8.96027V8.63731C20.4766 7.0965 19.8948 5.6255 18.8384 4.49534C17.4191 2.977 15.2894 2.47779 13.4125 3.22338C12.5368 3.57125 11.7948 4.16104 11.2667 4.92889C11.1697 5.06992 11.0812 5.21679 11 5.36816C10.9188 5.21679 10.8302 5.06996 10.7332 4.92889C10.2051 4.16104 9.4631 3.57125 8.5874 3.22338C6.71057 2.4777 4.58074 2.977 3.16153 4.49534C2.1051 5.6255 1.52335 7.0965 1.52335 8.63731V8.96027L0.0753891 11.6886C-0.0306147 11.8884 -0.0244702 12.1293 0.0915453 12.3234C0.207604 12.5175 0.41656 12.6362 0.642017 12.6362H1.52335V13.6836C1.52335 15.4564 2.96005 16.8987 4.72602 16.8987H6.38513V18.4734C6.38513 18.8294 6.67259 19.118 7.02716 19.118C7.38174 19.118 7.6692 18.8294 7.6692 18.4734V16.2542C7.6692 15.8983 7.38174 15.6097 7.02716 15.6097H4.72602C4.03899 15.6097 3.4355 15.2451 3.09652 14.6987H3.80924C4.54091 14.6987 5.1362 14.1011 5.1362 13.3665C5.1362 13.0106 4.84874 12.722 4.49416 12.722C4.13958 12.722 3.85212 13.0106 3.85212 13.3665C3.85212 13.3895 3.8321 13.4096 3.8092 13.4096H2.80738V11.9917C2.80738 11.6357 2.51992 11.3471 2.16534 11.3471H1.71151L2.73197 9.42433C2.78147 9.33104 2.80738 9.22697 2.80738 9.12127V8.63736C2.80738 7.42547 3.26569 6.26776 4.09786 5.37745C5.17057 4.22992 6.70975 3.86383 8.11492 4.42204C9.49262 4.96937 10.3151 6.24988 10.3151 7.84742V18.4735C10.3151 18.8294 10.6026 19.118 10.9572 19.118C10.9716 19.118 10.9857 19.1167 11 19.1158C11.0142 19.1167 11.0283 19.118 11.0428 19.118C11.3973 19.118 11.6848 18.8294 11.6848 18.4735V7.84737C11.6848 6.24984 12.5073 4.96933 13.885 4.42199C15.2901 3.86379 16.8294 4.22988 17.9021 5.3774C18.7342 6.26767 19.1925 7.42542 19.1925 8.63731V9.12123C19.1925 9.22693 19.2185 9.331 19.268 9.42429L20.2884 11.3471H19.8346C19.48 11.3471 19.1925 11.6357 19.1925 11.9916V12.722H18.1907C17.459 12.722 16.8638 13.3196 16.8638 14.0541C16.8638 14.4101 17.1512 14.6987 17.5058 14.6987C17.8604 14.6987 18.1478 14.4101 18.1478 14.0541C18.1478 14.0312 18.1679 14.011 18.1908 14.011H19.1643C19.0089 14.9176 18.2206 15.6096 17.274 15.6096H14.9728C14.6183 15.6096 14.3308 15.8982 14.3308 16.2542V18.4734C14.3308 18.8293 14.6183 19.1179 14.9728 19.1179C15.3274 19.1179 15.6149 18.8293 15.6149 18.4734V16.8987H17.274C19.0399 16.8987 20.4767 15.4564 20.4767 13.6835V12.6362H21.358C21.5835 12.6362 21.7924 12.5174 21.9085 12.3233C22.0244 12.1293 22.0306 11.8884 21.9245 11.6886Z" fill="white"/>
</svg>
