<svg width="20" height="20" viewBox="0 0 20 20" fill="none" xmlns="http://www.w3.org/2000/svg">
<path d="M4.0743 2.08216C5.41696 0.739456 7.19545 0 9.08202 0C10.9686 0 12.747 0.739456 14.0897 2.08216C15.4324 3.42486 16.1719 5.2033 16.1719 7.08987V8.55617L17.939 11.873C18.0358 12.0545 18.0301 12.2736 17.9243 12.45C17.8184 12.6265 17.6277 12.7344 17.4219 12.7344H16.1719V14.1796C16.1719 16.2043 14.5247 17.8516 12.4999 17.8516H10.3125V19.414C10.3125 19.7376 10.0501 19.9999 9.72655 19.9999C9.40295 19.9999 9.14061 19.7376 9.14061 19.414V17.2657C9.14061 16.9421 9.40295 16.6798 9.72655 16.6798H12.4999C13.8785 16.6798 15 15.5582 15 14.1796V12.1485C15 11.8249 15.2624 11.5625 15.5859 11.5625H16.4458L15.0688 8.978C15.0236 8.8932 15 8.79859 15 8.7025V7.08987C15 3.82669 12.3452 1.17188 9.08202 1.17188C5.8188 1.17188 3.16402 3.82669 3.16402 7.08987V19.4141C3.16402 19.7377 2.90168 20 2.57808 20C2.25449 20 1.99214 19.7377 1.99214 19.4141V7.08987C1.99214 5.20326 2.7316 3.42486 4.0743 2.08216Z" fill="white"/>
<path d="M6.11534 7.50836L8.16378 6.96992V3.51545C8.16378 3.25225 8.33929 3.02135 8.59292 2.95088C8.84648 2.88041 9.11601 2.98775 9.25171 3.2133L12.4494 8.52551C12.5428 8.68063 12.5592 8.8702 12.4939 9.03907C12.4285 9.20793 12.2888 9.33715 12.1153 9.38903L10.3122 9.92837V12.8905C10.3122 13.1449 10.1481 13.3702 9.90597 13.4482C9.84675 13.4672 9.78625 13.4765 9.72636 13.4765C9.54132 13.4765 9.36273 13.3886 9.25054 13.2325L5.78858 8.41707C5.67597 8.26039 5.64769 8.05832 5.71296 7.87676C5.77823 7.69515 5.9287 7.55742 6.11534 7.50836ZM9.14035 11.0717V9.49204C9.14035 9.23309 9.31031 9.00485 9.55836 8.93067L11.0559 8.48274L9.33566 5.62499V7.42172C9.33566 7.68793 9.15617 7.9207 8.89867 7.9884L7.23757 8.42504L9.14035 11.0717Z" fill="white"/>
</svg>
