<svg width="40" height="40" viewBox="0 0 40 40" fill="none" xmlns="http://www.w3.org/2000/svg">
<g clip-path="url(#clip0)">
<path d="M34.8911 7.37453L27.8598 0.343281C27.6402 0.123438 27.3421 0 27.0312 0H5.9375C5.29031 0 4.76562 0.524687 4.76562 1.17188V38.8281C4.76562 39.4753 5.29031 40 5.9375 40H34.0625C34.7097 40 35.2344 39.4753 35.2344 38.8281V8.20312C35.2344 7.89227 35.1109 7.59422 34.8911 7.37453ZM28.2031 4.00102L31.2334 7.03125H28.2031V4.00102ZM7.10938 37.6562V2.34375H25.8594V8.20312C25.8594 8.85031 26.3841 9.375 27.0312 9.375H32.8906V37.6562H7.10938Z" fill="#0367FF"/>
<path d="M19.6567 29.0152C19.1991 28.5576 18.4571 28.5576 17.9995 29.0152L16.7578 30.2568L14.7097 28.2087C15.7687 27.6023 16.4844 26.4616 16.4844 25.1563C16.4844 23.2177 14.9073 21.6406 12.9688 21.6406H10.625C9.97781 21.6406 9.45312 22.1653 9.45312 22.8125V31.6405C9.45312 32.2877 9.97781 32.8124 10.625 32.8124C11.2722 32.8124 11.7969 32.2877 11.7969 31.6405V28.6719H11.8584L15.1005 31.9141L13.8563 33.1583C13.3987 33.6159 13.3987 34.3579 13.8563 34.8155C14.3141 35.2732 15.0559 35.2732 15.5136 34.8155L16.7578 33.5713L17.9939 34.8074C18.4516 35.2651 19.1935 35.2651 19.6512 34.8074C20.1088 34.3498 20.1088 33.6078 19.6512 33.1502L18.4151 31.9141L19.6568 30.6723C20.1145 30.2148 20.1145 29.4727 19.6567 29.0152ZM11.7969 23.9844H12.9688C13.6149 23.9844 14.1406 24.5101 14.1406 25.1563C14.1406 25.8024 13.6149 26.3281 12.9688 26.3281H11.7969V23.9844Z" fill="#0367FF"/>
<path d="M29.375 11.7188H10.625C9.97781 11.7188 9.45312 12.2434 9.45312 12.8906C9.45312 13.5378 9.97781 14.0625 10.625 14.0625H29.375C30.0222 14.0625 30.5469 13.5378 30.5469 12.8906C30.5469 12.2434 30.0222 11.7188 29.375 11.7188Z" fill="#0367FF"/>
<path d="M29.375 16.4062H10.625C9.97781 16.4062 9.45312 16.9309 9.45312 17.5781C9.45312 18.2253 9.97781 18.75 10.625 18.75H29.375C30.0222 18.75 30.5469 18.2253 30.5469 17.5781C30.5469 16.9309 30.0222 16.4062 29.375 16.4062Z" fill="#0367FF"/>
<path d="M10.625 9.375H22.3438C22.9909 9.375 23.5156 8.85031 23.5156 8.20312C23.5156 7.55594 22.9909 7.03125 22.3438 7.03125H10.625C9.97781 7.03125 9.45312 7.55594 9.45312 8.20312C9.45312 8.85031 9.97781 9.375 10.625 9.375Z" fill="#0367FF"/>
<path d="M29.375 21.0938H22.3438C21.6966 21.0938 21.1719 21.6184 21.1719 22.2656C21.1719 22.9128 21.6966 23.4375 22.3438 23.4375H29.375C30.0222 23.4375 30.5469 22.9128 30.5469 22.2656C30.5469 21.6184 30.0222 21.0938 29.375 21.0938Z" fill="#0367FF"/>
<path d="M29.375 25.7812H22.3438C21.6966 25.7812 21.1719 26.3059 21.1719 26.9531C21.1719 27.6003 21.6966 28.125 22.3438 28.125H29.375C30.0222 28.125 30.5469 27.6003 30.5469 26.9531C30.5469 26.3059 30.0222 25.7812 29.375 25.7812Z" fill="#0367FF"/>
</g>
<defs>
<clipPath id="clip0">
<rect width="40" height="40" fill="white"/>
</clipPath>
</defs>
</svg>
