<svg width="15" height="21" viewBox="0 0 15 21" fill="none" xmlns="http://www.w3.org/2000/svg">
<path d="M5.52629 6.71068V7.4516H6.31576V6.71068C6.77465 6.57096 7.10524 6.19838 7.10524 5.75806H6.31576C6.31576 5.94435 6.13813 6.09677 5.92103 6.09677C5.70392 6.09677 5.52629 5.94435 5.52629 5.75806H4.73682C4.73682 6.19838 5.06741 6.57096 5.52629 6.71068Z" fill="white"/>
<path d="M8.68425 6.71068V7.4516H9.47372V6.71068C9.9326 6.57096 10.2632 6.19838 10.2632 5.75806H9.47372C9.47372 5.94435 9.29609 6.09677 9.07899 6.09677C8.86188 6.09677 8.68425 5.94435 8.68425 5.75806H7.89478C7.89478 6.19838 8.22537 6.57096 8.68425 6.71068Z" fill="white"/>
<path d="M6.00505 8.92088L5.96558 8.99286L6.67117 9.2977L6.71065 9.22572C6.85867 8.96746 7.1646 8.80657 7.50012 8.80657C7.83565 8.80657 8.14158 8.96746 8.2896 9.22572L8.32908 9.2977L9.03467 8.99286L8.9952 8.92088C8.70901 8.42976 8.13664 8.12915 7.50012 8.12915C6.86361 8.12915 6.29124 8.43399 6.00505 8.92088Z" fill="white"/>
<path d="M13.8898 13.6331C13.4852 13.2181 12.9868 12.8752 12.4293 12.6254C12.9079 12.3798 13.2533 11.9734 13.3618 11.4865C13.3668 11.4865 13.3717 11.4865 13.3766 11.4865C14.3043 11.3383 14.9753 10.6228 14.9753 9.78024C14.9803 6.35081 13.352 3.1881 12.3799 1.6131C11.7681 0.618145 10.574 0 9.25658 0H8.83717C7.87993 0 7.00164 0.330242 6.35033 0.880645C5.96546 0.745161 5.56086 0.677419 5.14638 0.677419C3.9523 0.677419 2.86678 1.23629 2.30921 2.13387C1.25329 3.83165 0 6.5371 0 9.78024C0 10.6228 0.671053 11.3383 1.59868 11.4865C1.60362 11.4865 1.60855 11.4865 1.61842 11.4865C1.72697 11.9734 2.0773 12.3841 2.56086 12.6296C2.00822 12.8794 1.5148 13.2181 1.1102 13.6288C0.394737 14.3698 0 15.3012 0 16.2581V17.6129C0 19.48 1.77138 21 3.94737 21H7.10526H7.1102H11.0526C13.2286 21 15 19.48 15 17.6129V16.2581C15 15.3012 14.6053 14.3698 13.8898 13.6331ZM13.2878 14.0649C13.8849 14.6788 14.2105 15.4579 14.2105 16.2581V16.9355H12.6316V14.9032H11.8421V17.2742C11.8421 17.7315 11.4819 18.1167 10.9984 18.2437C11.0329 18.1506 11.0526 18.0532 11.0526 17.9516V12.9091L11.0872 12.9175C11.9408 13.0784 12.7253 13.4891 13.2878 14.0649ZM6.31579 18.2903V16.5968C6.31579 16.0379 6.84868 15.5806 7.5 15.5806C8.15132 15.5806 8.68421 16.0379 8.68421 16.5968V18.2903H7.13487H7.10526H6.31579ZM6.71053 14.2258C6.71053 13.8532 7.06579 13.5484 7.5 13.5484C7.93421 13.5484 8.28947 13.8532 8.28947 14.2258C8.28947 14.5984 7.93421 14.9032 7.5 14.9032C7.06579 14.9032 6.71053 14.5984 6.71053 14.2258ZM8.60033 15.1911C8.89145 14.9456 9.07895 14.6026 9.07895 14.2258C9.07895 13.4806 8.36842 12.871 7.5 12.871C6.63158 12.871 5.92105 13.4806 5.92105 14.2258C5.92105 14.6069 6.10362 14.9456 6.39967 15.1911C5.87171 15.496 5.52632 16.0125 5.52632 16.5968V18.2903H5.13158C4.91447 18.2903 4.73684 18.1379 4.73684 17.9516V12.5323C4.73684 12.346 4.91447 12.1935 5.13158 12.1935H9.86842C10.0855 12.1935 10.2632 12.346 10.2632 12.5323V17.9516C10.2632 18.1379 10.0855 18.2903 9.86842 18.2903H9.47368V16.5968C9.47368 16.0125 9.12829 15.496 8.60033 15.1911ZM5.04276 4.54294C5.32401 4.86895 5.76809 5.08064 6.27632 5.08064C6.62171 5.08064 6.97204 5.00867 7.28783 4.87319L8.15625 4.4879C8.43257 4.84355 8.90132 5.08064 9.43421 5.08064C9.77961 5.08064 10.1299 5.00867 10.4408 4.87742C10.574 4.81814 10.727 4.82661 10.8553 4.89435C10.9836 4.9621 11.0576 5.07641 11.0576 5.20766V7.1129C11.0576 8.79375 9.46382 10.1613 7.50493 10.1613C5.54605 10.1613 3.9523 8.79375 3.9523 7.1129V6.26613C3.9523 5.63105 4.30757 5.02137 4.90461 4.63609L5.04276 4.54294ZM7.5 10.8387C7.80099 10.8387 8.09211 10.8133 8.37336 10.7625L8.52138 11.5161H6.45395L6.60197 10.7583C6.88816 10.8091 7.18915 10.8387 7.5 10.8387ZM0.789474 9.78024C0.78454 6.51169 2.17599 3.78508 3.00493 2.45141C3.42434 1.77399 4.24342 1.35484 5.14638 1.35484C5.38322 1.35484 5.61513 1.38448 5.83224 1.43952C5.72862 1.5877 5.62993 1.74012 5.55592 1.90524L6.29112 2.15504C6.71053 1.25746 7.71217 0.673185 8.83717 0.673185H9.25658C10.278 0.673185 11.2056 1.15161 11.6842 1.92218C12.6217 3.44637 14.1908 6.49052 14.1908 9.77601C14.1908 10.2841 13.7812 10.7286 13.2385 10.8175C12.8783 10.8726 12.528 10.8006 12.2516 10.6016C11.9803 10.4069 11.8224 10.1232 11.8224 9.81835H11.0329C11.0329 10.3222 11.2944 10.7964 11.7434 11.1224C11.9803 11.2917 12.2615 11.4018 12.5576 11.4611C12.4095 11.8802 11.9605 12.1893 11.4276 12.1893H10.9836C10.8207 11.7956 10.3865 11.5119 9.87336 11.5119H9.33059C9.32566 11.4992 9.31579 11.4865 9.31579 11.4696L9.13816 10.555C10.2385 10.1698 11.1118 9.41189 11.5461 8.45927H11.847C12.7155 8.45927 13.426 7.8496 13.426 7.10444C13.426 6.35927 12.7155 5.7496 11.847 5.7496V5.19496C11.847 4.83085 11.6299 4.5006 11.2697 4.30585C10.9095 4.11532 10.4655 4.09839 10.0855 4.25927C9.88322 4.34395 9.66118 4.39052 9.43421 4.39052C9.01974 4.39052 8.68915 4.10262 8.68915 3.75121C8.68915 3.58609 8.7977 3.43367 8.95066 3.39556C9.12829 3.34899 9.25658 3.40403 9.31579 3.44214C9.41941 3.50565 9.47368 3.60726 9.47368 3.7131H10.2632C10.2632 3.39133 10.0855 3.08649 9.78454 2.89597C9.47862 2.70121 9.08882 2.64617 8.71875 2.74355C8.2352 2.87056 7.89967 3.28548 7.89967 3.74698C7.89967 3.77238 7.90461 3.79778 7.90954 3.82319L6.93257 4.25927C6.73026 4.34395 6.50822 4.39052 6.28125 4.39052C5.86678 4.39052 5.53618 4.10262 5.53618 3.74698C5.53618 3.58185 5.64474 3.42944 5.7977 3.39133C5.97533 3.34476 6.10362 3.3998 6.16283 3.4379C6.26645 3.50141 6.32072 3.60302 6.32072 3.70887H7.1102C7.1102 3.3871 6.93257 3.08226 6.63158 2.89173C6.32566 2.69698 5.93586 2.64194 5.56579 2.73931C5.08224 2.86633 4.74671 3.28125 4.74671 3.74274C4.74671 3.78508 4.75658 3.82319 4.76151 3.86129L4.43092 4.08145C3.79934 4.4879 3.375 5.08488 3.23191 5.74113H3.15789C2.28947 5.74113 1.57895 6.35081 1.57895 7.09597C1.57895 7.84113 2.28947 8.45081 3.15789 8.45081H3.45888C3.88816 9.39073 4.75165 10.1486 5.83717 10.5381L5.66447 11.4399C5.65954 11.4611 5.65461 11.4823 5.64474 11.5034H5.13158C4.61842 11.5034 4.18421 11.7871 4.02138 12.1808H3.55263C3.0148 12.1808 2.57072 11.8718 2.4227 11.4526C2.71875 11.3933 2.99507 11.2833 3.23191 11.1139C3.68586 10.8048 3.94737 10.3264 3.94737 9.82258H3.15789C3.15789 10.1274 3 10.4111 2.72862 10.6058C2.4523 10.8006 2.10197 10.8768 1.74178 10.8218C1.19901 10.7329 0.789474 10.2841 0.789474 9.78024ZM11.8421 7.1129V6.43548C12.2763 6.43548 12.6316 6.74032 12.6316 7.1129C12.6316 7.48548 12.2763 7.79032 11.8421 7.79032H11.7681C11.8125 7.57016 11.8421 7.34577 11.8421 7.1129ZM3.23191 7.79032H3.15789C2.72368 7.79032 2.36842 7.48548 2.36842 7.1129C2.36842 6.74032 2.72368 6.43548 3.15789 6.43548V7.1129C3.15789 7.34577 3.1875 7.57016 3.23191 7.79032ZM1.71217 14.0649C2.27467 13.4849 3.05428 13.0784 3.91283 12.9133L3.94737 12.9048V17.9516C3.94737 18.0532 3.97204 18.1506 4.00164 18.2437C3.51316 18.1167 3.15789 17.7357 3.15789 17.2742V14.9032H2.36842V16.9355H0.789474V16.2581C0.789474 15.4579 1.12007 14.6788 1.71217 14.0649ZM0.789474 17.6129H2.40789C2.59046 18.3835 3.3898 18.9677 4.34211 18.9677H5.13158H5.74342C5.60526 19.1667 5.52632 19.3954 5.52632 19.6452C5.52632 19.895 5.6102 20.1236 5.74342 20.3226H3.94737C2.20559 20.3226 0.789474 19.1075 0.789474 17.6129ZM11.0526 20.3226H7.1102H7.10526C6.67105 20.3226 6.31579 20.0177 6.31579 19.6452C6.31579 19.2726 6.67105 18.9677 7.10526 18.9677H7.13487H9.86842H10.6579C11.6102 18.9677 12.4095 18.3835 12.5921 17.6129H14.2105C14.2105 19.1075 12.7944 20.3226 11.0526 20.3226Z" fill="white"/>
</svg>
