<svg width="1512" height="541" viewBox="0 0 1512 541" fill="none" xmlns="http://www.w3.org/2000/svg">
<g clip-path="url(#clip0)">
<path d="M1148.66 225.909C1140.37 196.681 1130.09 168.135 1118.59 140.041C1117.68 140.313 1116.77 140.582 1115.87 140.841C1107.24 143.323 1098.62 145.25 1089.6 144.185C1085.1 143.653 1083.22 136.655 1087.31 134.3C1095.04 129.861 1103.15 126.225 1111.21 122.47C1093.46 81.1509 1073.36 40.7181 1053.31 0.448192C1022.65 36.4789 1001.53 80.118 990.981 126.19C999.663 128.631 1008.41 130.857 1016.26 135.484C1020.7 138.1 1020.34 145.451 1014.48 145.957C1005.35 146.75 996.289 146.111 987.349 144.597C982.97 171.028 982.039 198.019 984.746 224.633C992.337 219.078 1003.14 216.826 1011.57 214.46C1016.97 212.941 1020.98 218.464 1017.79 223.1C1010.31 233.964 998.68 239.723 987.81 246.501C989.81 257.644 992.471 268.676 995.809 279.52C1012.6 334.059 1041.14 384.635 1060.53 438.35C1068.68 460.953 1083.05 522.994 1115.91 520.472C1159.77 517.108 1166.26 425.435 1168.46 395.157C1172.61 338.195 1164.21 280.693 1148.66 225.909Z" fill="#319484"/>
<path d="M1105.22 559.911C1104.91 559.867 1104.69 559.586 1104.71 559.274C1107.76 527.365 1105.42 492.922 1097.54 453.971C1090.51 419.193 1079.8 384.031 1069.44 350.024C1052.57 294.633 1035.12 237.352 1032.67 179.274C1030.74 133.549 1042.38 59.6334 1052.74 0.34757C1052.79 0.0284532 1053.09 -0.175147 1053.42 -0.129119C1053.74 -0.0732394 1053.95 0.231387 1053.89 0.550504C1043.55 59.7782 1031.92 133.61 1033.85 179.222C1036.29 237.152 1053.72 294.359 1070.57 349.68C1080.94 383.714 1091.66 418.905 1098.7 453.737C1106.6 492.805 1108.95 527.361 1105.89 559.388C1105.86 559.71 1105.57 559.947 1105.25 559.915C1105.23 559.914 1105.22 559.912 1105.22 559.911Z" fill="white"/>
<path d="M1232.67 526.108C1261.86 495.459 1280.18 455.396 1311.3 426.715C1331.13 408.452 1355.16 395.714 1378.11 381.432C1373.35 376.133 1368.46 370.941 1364.1 365.305C1359.71 359.629 1368.22 353.407 1372.87 358.644C1377.95 364.376 1383.74 369.329 1389.87 373.856C1391.93 372.474 1393.98 371.07 1396 369.634C1406.24 362.379 1415.91 354.348 1424.96 345.662C1418.38 339.293 1412.1 332.625 1406.83 325.163C1403.27 320.133 1409.54 313.62 1414.55 317.458C1421.99 323.151 1430.48 327.123 1438.92 331.173C1461.33 306.05 1478.87 276.584 1489.98 244.816C1495.22 229.814 1497.24 209.447 1483.46 201.493C1475.03 196.63 1464.46 199.044 1455.06 201.59C1416.47 212.052 1377.88 222.514 1339.29 232.976C1339.29 233.012 1339.3 233.044 1339.3 233.08C1339.69 236.852 1340.55 240.568 1341.45 244.244C1343.11 250.985 1345.76 258.038 1345.73 265.057C1345.71 270.321 1339.6 273.587 1335.88 269.049C1328.43 259.982 1324.96 248.744 1319.91 238.367C1297.56 244.896 1275.61 252.911 1257.24 266.938C1230.78 287.132 1214.53 317.625 1200.04 347.566C1185.55 377.507 1171.49 408.628 1147.75 431.947C1124.47 454.827 1069.13 457.295 1058.63 490.903C1047.92 525.15 1089.22 561.568 1118.69 568.188C1160.04 577.49 1203.47 556.775 1232.67 526.108Z" fill="#4DD0BB"/>
<path d="M1072.23 541.125C1071.95 541.085 1071.73 540.847 1071.73 540.558C1071.72 540.233 1071.98 539.963 1072.3 539.957C1107.4 539.116 1143.05 526.201 1172.67 503.587C1202.3 480.973 1224.14 450.014 1234.17 416.412C1235.9 410.616 1237.37 404.582 1238.79 398.749C1242.38 383.987 1246.09 368.721 1254.4 355.77C1266.21 337.349 1285.96 325.588 1303.37 315.213L1485.96 206.444C1486.24 206.276 1486.6 206.369 1486.77 206.647C1486.94 206.927 1486.84 207.287 1486.57 207.455L1303.98 316.224C1286.67 326.534 1267.06 338.218 1255.39 356.407C1247.19 369.194 1243.5 384.361 1239.93 399.028C1238.51 404.875 1237.04 410.922 1235.3 416.748C1225.2 450.586 1203.22 481.76 1173.39 504.522C1143.57 527.284 1107.68 540.285 1072.33 541.132C1072.29 541.13 1072.26 541.129 1072.23 541.125Z" fill="white"/>
<path d="M1223.55 412.806C1239.37 373.566 1241.61 329.575 1259.96 291.451C1271.65 267.178 1289.29 246.482 1305.34 224.763C1298.97 221.587 1292.5 218.56 1286.37 214.923C1280.2 211.262 1285.82 202.342 1292.07 205.504C1298.91 208.964 1306.12 211.436 1313.48 213.388C1314.89 211.344 1316.28 209.287 1317.63 207.207C1324.46 196.692 1330.49 185.665 1335.7 174.261C1327.24 170.761 1318.94 166.872 1311.28 161.875C1306.12 158.509 1309.54 150.144 1315.62 151.867C1324.63 154.423 1333.99 154.991 1343.33 155.648C1354.88 124.041 1360.32 90.1919 1358.92 56.5659C1358.26 40.6832 1352.62 21.0062 1336.88 18.6847C1327.25 17.2625 1318.31 23.4033 1310.52 29.2262C1278.51 53.1583 1246.5 77.0905 1214.49 101.023C1214.51 101.054 1214.52 101.084 1214.54 101.114C1216.29 104.478 1218.46 107.617 1220.66 110.704C1224.69 116.361 1229.75 121.942 1232.31 128.48C1234.23 133.384 1229.76 138.664 1224.63 135.823C1214.36 130.132 1206.99 120.96 1198.47 113.174C1180.1 127.47 1162.66 143.004 1150.76 162.804C1133.62 191.318 1129.77 225.649 1127.35 258.825C1124.93 291.997 1123.34 326.104 1109.88 356.526C1096.68 386.372 1046.16 409.032 1048.79 444.149C1051.48 479.93 1103.31 498.588 1133.14 493.899C1174.99 487.315 1207.72 452.07 1223.55 412.806Z" fill="#2B8688"/>
<path d="M1074.19 485.354C1074 485.326 1073.82 485.199 1073.73 485.001C1073.61 484.701 1073.75 484.356 1074.04 484.229C1106.36 470.527 1134.73 445.399 1153.92 413.467C1173.11 381.538 1181.99 344.713 1178.91 309.78C1178.38 303.754 1177.52 297.605 1176.69 291.66C1174.58 276.613 1172.4 261.052 1175.34 245.951C1179.52 224.475 1193.53 206.274 1205.89 190.216L1335.47 21.8816C1335.67 21.6249 1336.04 21.5754 1336.29 21.7736C1336.55 21.9719 1336.6 22.3411 1336.4 22.5978L1206.83 190.932C1194.55 206.889 1180.63 224.972 1176.5 246.175C1173.59 261.081 1175.76 276.541 1177.85 291.495C1178.69 297.454 1179.55 303.618 1180.08 309.675C1183.18 344.855 1174.25 381.931 1154.93 414.071C1135.61 446.21 1107.05 471.511 1074.5 485.307C1074.41 485.356 1074.29 485.368 1074.19 485.354Z" fill="white"/>
<path d="M184.339 181.782C188.484 177.841 184.391 170.714 178.904 173.13C173.11 175.679 166.891 177.43 160.979 179.766C144.427 131.872 139.316 78.7521 156.318 31.1646C159.006 23.6407 162.673 15.786 169.645 11.8692C180.424 5.81453 194.665 12.1581 201.916 22.161C209.167 32.1639 211.419 44.7919 214.459 56.7619C220.11 79.0446 229.198 100.429 241.166 120.059C234.699 124.505 229.746 130.991 228.414 138.79C227.72 142.857 232.283 145.36 235.679 144.016C241.037 141.892 244.82 137.474 248.633 133.352C248.867 133.101 249.104 132.84 249.344 132.572C253.528 138.539 257.99 144.309 262.714 149.858C257.223 152.936 252.269 157.041 248.26 161.801C245.921 164.579 248.156 169.972 251.942 169.906C260.448 169.753 267.633 166.657 274.622 162.821C278.739 166.971 283.017 170.961 287.444 174.78C321.577 204.221 364.24 223.635 394.262 257.251C430.733 298.087 441.92 353.975 437.751 407.269C435.192 439.986 425.546 538.201 370.682 506.218C357.605 498.597 348.744 485.6 340.328 473.031C307.308 423.717 274.291 374.406 241.271 325.091C214.801 285.557 188.121 245.611 169.544 201.941C174.045 194.901 178.221 187.6 184.339 181.782Z" fill="#4DD0BB"/>
<path d="M395.35 512.679C395.088 512.679 394.855 512.491 394.806 512.223C387.736 472.351 380.983 436.608 369.877 402.957C363.78 384.48 356.87 368.113 348.758 352.919C339.743 336.036 329.462 320.992 317.334 306.933C304.39 291.927 289.17 278.522 274.445 265.56C254.424 247.932 233.723 229.706 218.594 207.273C200.114 179.876 188.202 148.962 182.174 112.767C177.182 82.7826 176.251 49.9644 179.246 9.48641C179.267 9.18351 179.535 8.95372 179.835 8.97809C180.138 8.99898 180.365 9.26359 180.344 9.5665C177.356 49.9539 178.284 82.6886 183.262 112.586C189.262 148.625 201.118 179.396 219.507 206.657C234.557 228.971 255.205 247.149 275.173 264.731C289.923 277.718 305.175 291.15 318.167 306.212C330.348 320.334 340.674 335.444 349.727 352.4C357.871 367.65 364.804 384.073 370.923 402.613C382.05 436.333 388.813 472.117 395.89 512.031C395.942 512.331 395.744 512.616 395.444 512.668C395.412 512.679 395.381 512.679 395.35 512.679Z" fill="white"/>
<path d="M314.731 303.473C307.797 275.881 302.788 247.92 298.991 219.75C299.856 219.548 300.717 219.342 301.571 219.133C309.739 217.124 317.642 214.67 324.468 209.597C327.867 207.073 326.124 200.513 321.696 200.51C313.347 200.506 305.064 201.338 296.764 202.049C291.848 160.234 289.262 118.043 286.699 76.0051C328.442 90.9589 366.008 116.532 396.118 149.016C390.209 155.046 384.15 160.934 379.935 168.35C377.554 172.542 381.288 178.339 386.28 176.02C394.064 172.406 401.124 167.664 407.674 162.267C423.592 181.681 436.971 203.156 447.22 226.024C438.46 225.052 428.636 228.259 420.688 230.268C415.584 231.556 414.918 237.906 419.677 240.184C430.829 245.517 442.964 244.769 454.96 245.204C458.547 255.183 461.545 265.377 463.905 275.738C475.778 327.842 476.26 382.201 485.644 434.84C489.594 456.991 506.944 514.049 479.083 527.324C441.897 545.042 393.757 473.654 377.809 450.101C347.804 405.779 327.727 355.19 314.731 303.473Z" fill="#2B8688"/>
<path d="M484.887 532.953C484.713 532.953 484.546 532.873 484.437 532.719C466.972 508.153 452.717 479.004 440.861 443.609C430.288 412.052 422.535 378.488 415.033 346.028C402.842 293.264 390.236 238.706 365.125 190.54C346.712 155.212 320.918 117.86 286.277 76.3553C286.081 76.1221 286.113 75.7739 286.346 75.5789C286.58 75.384 286.929 75.4153 287.124 75.6486C321.817 117.216 347.653 154.63 366.105 190.029C391.278 238.316 403.901 292.947 416.106 345.778C423.601 378.21 431.348 411.749 441.903 443.258C453.725 478.548 467.931 507.603 485.333 532.079C485.511 532.326 485.452 532.671 485.204 532.848C485.11 532.918 484.999 532.953 484.887 532.953Z" fill="white"/>
<path d="M137.399 461.754C142.182 457.106 147.317 452.83 152.023 448.106C155.924 444.189 151.629 436.55 146.348 439.607C137.887 444.506 129.398 449.359 120.917 454.22C99.4981 435.694 80.1362 414.48 64.1001 391.309C71.048 384.175 78.5466 377.508 84.1278 369.166C84.8425 368.097 85.0795 366.993 84.9784 365.959C86.1219 362.484 82.3569 357.62 77.6925 359.347C68.6286 362.707 59.8332 366.694 51.0726 370.764C27.9004 330.672 14.8136 285.828 17.5502 239.581C63.5772 272.901 124.127 272.358 180.644 282.416C180.243 285.254 180.031 288.109 179.93 290.901C179.612 299.626 180.306 308.63 182.481 317.101C183.81 322.278 190.416 322.459 192.445 317.724C196.708 307.77 199.947 297.447 201.913 286.852C298.75 310.569 396.117 402.753 408.852 505.045C425.561 639.27 196.279 509.321 149.328 476.391C144.159 472.766 139.069 468.985 134.066 465.065C135.175 463.919 136.304 462.819 137.399 461.754Z" fill="#2B8688"/>
<path d="M396.625 554.365C396.552 554.365 396.479 554.351 396.406 554.32C361.119 539.112 340.774 512.568 319.23 484.464C308.911 471.003 298.244 457.084 285.513 443.874C256.024 413.27 215.665 396.144 176.638 379.582C164.364 374.373 151.674 368.987 139.529 363.27C117.932 353.1 86.7977 336.217 61.1329 313.548C34.0808 289.65 19.2334 264.784 17.0023 239.629C16.9744 239.326 17.201 239.058 17.5043 239.033C17.8076 239.002 18.076 239.228 18.1039 239.535C20.3106 264.397 35.0359 289.02 61.872 312.723C87.4391 335.305 118.476 352.132 140.01 362.271C152.134 367.981 164.817 373.363 177.081 378.565C216.212 395.169 256.676 412.341 286.322 443.108C299.095 456.363 309.783 470.307 320.119 483.792C341.573 511.777 361.834 538.214 396.855 553.307C397.134 553.429 397.263 553.752 397.145 554.031C397.044 554.24 396.842 554.365 396.625 554.365Z" fill="white"/>
<path d="M505.006 127.199H312.13C286.403 127.199 265.545 148.03 265.545 173.725V231.19H260.776C258.894 231.19 257.363 232.715 257.363 234.598V256.93C257.363 258.81 258.89 260.339 260.776 260.339H265.545V295.507H260.776C258.894 295.507 257.363 297.032 257.363 298.915V321.247C257.363 323.127 258.89 324.655 260.776 324.655H265.545V557.029H551.587V173.721C551.591 148.03 530.733 127.199 505.006 127.199Z" fill="#01204A"/>
<path d="M531.671 557.019H285.465V172.176C285.465 159.057 296.115 148.42 309.251 148.42H507.889C521.025 148.42 531.675 159.057 531.675 172.176V557.019H531.671Z" fill="#ECF4FF"/>
<path d="M498.643 175.647H486.581C485.542 175.647 484.702 174.808 484.702 173.77V169.484C484.702 168.447 485.542 167.607 486.581 167.607H498.643V175.647Z" fill="#01204A"/>
<path d="M503.925 168.644C504.437 168.644 504.855 169.062 504.855 169.574V173.686C504.855 174.197 504.437 174.615 503.925 174.615H486.668C486.156 174.615 485.738 174.197 485.738 173.686V169.574C485.738 169.062 486.156 168.644 486.668 168.644H503.925ZM503.925 167.61H486.668C485.584 167.61 484.702 168.491 484.702 169.574V173.686C484.702 174.768 485.584 175.649 486.668 175.649H503.925C505.009 175.649 505.891 174.768 505.891 173.686V169.574C505.891 168.487 505.012 167.61 503.925 167.61Z" fill="#01204A"/>
<path d="M507.254 173.035C506.909 173.035 506.63 172.757 506.63 172.412V170.1C506.63 169.756 506.909 169.477 507.254 169.477C507.599 169.477 507.878 169.756 507.878 170.1V172.412C507.874 172.757 507.596 173.035 507.254 173.035Z" fill="#01204A"/>
<path d="M313.089 171.361H309.261V175.183H313.089V171.361Z" fill="#01204A"/>
<path d="M318.318 169.021H314.49V175.187H318.318V169.021Z" fill="#01204A"/>
<path d="M323.55 166.218H319.723V175.187H323.55V166.218Z" fill="#01204A"/>
<path d="M328.78 163.116H324.952V175.187H328.78V163.116Z" fill="#01204A"/>
<path d="M387.867 557.019H485.157C484.795 546.79 483.923 536.498 482.525 526.175C480.796 513.397 481.525 491.609 468.658 484.308C449.453 473.407 392.615 491.571 387.518 495.697C380.501 501.382 345.832 480.659 348.634 489.238C353.797 505.034 374.672 523.209 387.867 557.019Z" fill="#144361"/>
<path d="M285.466 549.408V557.016H433.974C444.328 544.704 451.896 530.332 455.194 514.504C291.103 438.837 367.762 507.795 285.466 549.408Z" fill="#2B6482"/>
<path d="M785.335 376.533C789.215 374.816 800.378 376.557 798.683 380.408C797.174 383.844 786.259 378.604 783.791 385.561C782.522 389.14 789.585 394.139 785.607 396.74C784.362 397.551 783.491 397.189 773.507 395.678C770.986 395.299 768.208 394.766 766.667 392.74C761.1 385.393 780.984 378.458 785.335 376.533Z" fill="#EF9C7B"/>
<path d="M772.416 381.78C751.228 390.042 707.484 393.28 682.227 383.959C600.408 353.776 650.2 280.324 553.489 246.443C471.415 217.692 352.236 237.44 285.47 267.006V293.157C371.287 273.788 437.339 307.846 437.339 307.846C431.998 334.484 408.17 387.737 291.243 426.126C266.334 584.229 364.221 567.993 454.922 566.054C479.158 565.535 501.159 551.786 512.196 530.231C530.763 493.963 551.864 440.233 571.296 355.242C569.528 403.345 673.533 467.592 776.959 397.503C774.553 389.676 774.313 389.707 772.416 381.78Z" fill="#5199FC"/>
<path d="M591.853 318.267C596.632 307.307 600.463 293.916 602.534 277.566C602.534 277.566 582.301 247.746 521.677 238.916C521.677 238.916 504.138 259.023 499.697 286.256C505.251 287.074 510.807 289.324 516.361 289.324C510.895 294.101 504.877 298.045 498.756 301.725C499.697 322.532 509.988 345.727 540.499 366.718C540.499 366.718 569.785 361.408 588.649 325.007C586.515 320.833 583.444 317.247 582.381 312.996C585.393 314.5 589.74 314.674 591.853 318.267Z" fill="#1C539F"/>
<path d="M522.298 281.57C522.298 281.57 517.073 334.426 540.496 366.718C555.981 356.454 583.298 321.992 589.89 265.495L522.298 281.57Z" fill="#EAF3FF"/>
<path d="M530.7 240.396C530.7 240.396 519.07 281.709 522.218 298.484L562.629 291.144L577.452 314.733C577.452 314.733 591.965 278.635 589.894 265.498C582.409 255.917 545.715 242.767 530.7 240.396Z" fill="white"/>
<path d="M581.635 184.351C581.635 184.351 567.6 230.616 540.495 242.346C540.816 260.088 547.391 272.093 558.999 281.918C568.171 289.686 580.857 272.859 585.302 261.547C585.302 261.547 576.308 256.582 605.162 218.51L581.635 184.351Z" fill="#FFB79A"/>
<path d="M637.023 170.651C637.023 196.509 621.844 238.456 603.117 238.456C584.389 238.456 569.211 217.493 569.211 191.635C569.211 165.776 584.389 144.813 603.117 144.813C621.844 144.813 637.023 144.792 637.023 170.651Z" fill="#FFC1A9"/>
<path d="M540.496 295.166L549.113 309.538C530.602 316.08 536.19 311.47 525.533 331.048C528.036 340.501 529.887 356.569 540.499 366.718C549.009 362.063 558.996 352.721 562.674 345.998L563.814 320.742L555.848 312.63L565.84 305.569L562.629 291.148L540.496 295.166Z" fill="#076DFA"/>
<path d="M390.606 568.526C390.209 568.526 389.822 568.31 389.627 567.931C389.348 567.391 389.56 566.73 390.101 566.454C406.214 558.182 424.087 542.535 443.222 519.939C458.575 501.817 474.754 479.221 491.316 452.785C519.53 407.749 539.306 366.655 539.501 366.244C539.763 365.698 540.418 365.468 540.966 365.729C541.513 365.99 541.743 366.645 541.482 367.191C541.283 367.602 521.457 408.808 493.178 453.948C476.56 480.471 460.318 503.151 444.899 521.356C435.73 532.181 426.754 541.526 418.216 549.13C408.797 557.521 399.677 564.003 391.105 568.404C390.944 568.488 390.774 568.526 390.606 568.526Z" fill="white"/>
<path d="M560.966 172.506C561.464 163.959 565.937 156.498 572.348 152.052C579.045 147.411 586.128 147.515 593.707 145.931C607.359 143.072 640.519 118.165 644.977 157.413C646.686 172.44 642.059 176.319 629.963 176.479C618.479 176.632 606.529 178.408 595.046 178.561C588.06 178.655 586.153 179.024 581.635 184.348C576.224 190.726 579.188 196.102 582.716 202.717C583.231 203.688 572.383 203.048 572.163 202.863C571.508 202.313 571.048 199.754 570.65 198.898C566.857 190.719 560.258 184.668 560.966 172.506Z" fill="#01204A"/>
<path d="M801.455 392.305C793.245 392.305 783.034 394.279 783.034 386.981C783.034 379.907 791.568 381.658 801.455 381.658V392.305Z" fill="#FFC89C"/>
<path d="M804.167 406.364H798.851C790.686 406.364 790.686 369.117 798.851 369.117H804.167V406.364Z" fill="#C78F43"/>
<path d="M811.686 387.74C811.686 412.352 796.644 412.648 796.644 387.74C796.644 363.128 811.686 362.832 811.686 387.74Z" fill="#FFCB80"/>
<path d="M629.154 286.009C628.077 286.009 627.135 285.215 626.982 284.119C626.212 278.642 625.483 273.019 624.775 267.584C622.806 252.442 620.944 238.136 618.608 229.401C618.295 228.231 618.992 227.026 620.163 226.713C621.338 226.399 622.541 227.096 622.854 228.266C625.267 237.283 627.146 251.729 629.133 267.017C629.837 272.441 630.569 278.054 631.336 283.506C631.504 284.707 630.667 285.814 629.464 285.985C629.356 286.002 629.255 286.009 629.154 286.009Z" fill="#76C3C1"/>
<path d="M616.203 339.261C612.323 339.261 608.593 338.231 605.438 336.25C600.809 333.346 597.81 328.694 596.765 322.796L590.148 285.487C589.866 283.896 590.929 282.378 592.522 282.096C594.115 281.814 595.635 282.876 595.918 284.467L602.534 321.776C603.73 328.527 609.196 334.679 618.713 333.214C628.202 331.748 631.542 324.234 630.646 317.438L626.25 284.192C626.038 282.59 627.167 281.121 628.771 280.908C630.371 280.696 631.845 281.824 632.058 283.426L636.454 316.672C637.238 322.619 635.792 327.956 632.267 332.113C629.165 335.769 624.671 338.213 619.609 338.997C618.469 339.174 617.329 339.261 616.203 339.261Z" fill="#FFC89C"/>
<path d="M593.031 287.172C591.985 287.172 591.058 286.424 590.869 285.358C587.213 264.743 584.364 249.239 582.074 236.782C578.347 216.504 576.475 206.324 576.106 200.889C575.701 195.009 577.047 193.421 580.415 191.889C580.836 191.697 581.269 191.499 581.729 191.259C582.803 190.691 584.131 191.099 584.699 192.168C585.267 193.24 584.859 194.566 583.789 195.134C583.21 195.44 582.691 195.677 582.231 195.886C581.269 196.321 580.892 196.513 580.739 196.784C580.53 197.153 580.317 198.114 580.488 200.59C580.843 205.777 582.698 215.874 586.397 235.991C588.687 248.456 591.539 263.97 595.196 284.596C595.408 285.79 594.61 286.928 593.414 287.141C593.285 287.162 593.156 287.172 593.031 287.172Z" fill="#76C3C1"/>
<path d="M711.879 449.582C704.74 449.582 697.604 448.715 690.621 446.981C673.152 442.636 657.611 432.901 645.682 418.831C626.079 395.713 621.425 364.723 617.315 337.381C617.075 335.783 618.176 334.293 619.776 334.053C621.373 333.812 622.869 334.913 623.109 336.511C627.101 363.079 631.626 393.196 650.151 415.047C661.282 428.176 675.763 437.253 692.033 441.299C706.94 445.007 722.613 444.46 737.359 439.715C763.725 431.233 781.277 411.231 783.163 387.517C783.292 385.905 784.708 384.704 786.315 384.833C787.929 384.962 789.132 386.372 789.003 387.98C786.925 414.103 767.825 436.062 739.155 445.285C730.276 448.147 721.072 449.582 711.879 449.582Z" fill="#FFC89C"/>
<path d="M1163.05 127.199H970.174C944.446 127.199 923.589 148.03 923.589 173.725V231.19H918.82C916.938 231.19 915.407 232.715 915.407 234.598V256.93C915.407 258.81 916.934 260.339 918.82 260.339H923.589V295.507H918.82C916.938 295.507 915.407 297.032 915.407 298.915V321.247C915.407 323.127 916.934 324.655 918.82 324.655H923.589V557.029H1209.63V173.721C1209.63 148.03 1188.78 127.199 1163.05 127.199Z" fill="#01204A"/>
<path d="M1189.71 557.019H943.509V172.176C943.509 159.057 954.159 148.42 967.294 148.42H1165.93C1179.07 148.42 1189.72 159.057 1189.72 172.176V557.019H1189.71Z" fill="#ECF4FF"/>
<path d="M1156.69 175.747H1144.63C1143.59 175.747 1142.75 174.908 1142.75 173.871V169.585C1142.75 168.547 1143.59 167.708 1144.63 167.708H1156.69V175.747Z" fill="#01204A"/>
<path d="M1161.97 168.742C1162.48 168.742 1162.9 169.16 1162.9 169.672V173.784C1162.9 174.296 1162.48 174.713 1161.97 174.713H1144.71C1144.2 174.713 1143.78 174.296 1143.78 173.784V169.672C1143.78 169.16 1144.2 168.742 1144.71 168.742H1161.97ZM1161.97 167.708H1144.71C1143.63 167.708 1142.75 168.589 1142.75 169.672V173.784C1142.75 174.867 1143.63 175.747 1144.71 175.747H1161.97C1163.05 175.747 1163.93 174.867 1163.93 173.784V169.672C1163.93 168.586 1163.06 167.708 1161.97 167.708Z" fill="#01204A"/>
<path d="M1165.3 173.136C1164.95 173.136 1164.67 172.858 1164.67 172.513V170.201C1164.67 169.856 1164.95 169.578 1165.3 169.578C1165.64 169.578 1165.92 169.856 1165.92 170.201V172.513C1165.92 172.858 1165.64 173.136 1165.3 173.136Z" fill="#01204A"/>
<path d="M971.133 171.462H967.305V175.285H971.133V171.462Z" fill="#01204A"/>
<path d="M976.362 169.119H972.534V175.285H976.362V169.119Z" fill="#01204A"/>
<path d="M981.594 166.316H977.767V175.284H981.594V166.316Z" fill="#01204A"/>
<path d="M986.823 163.214H982.995V175.285H986.823V163.214Z" fill="#01204A"/>
<path d="M745.723 205.652C761.78 212.066 770.985 229.053 767.351 245.939C766.689 249.014 765.889 252.081 764.667 254.948C758.422 269.596 751.954 283.217 737.871 290.407C741.707 286.502 743.631 282.482 742.936 277.557C742.278 272.885 737.116 265.801 732.417 265.325C718.929 263.958 711.639 265.116 697.961 266.152C681.375 267.409 662.611 265.03 652.129 252.129C643.44 241.434 643.032 225.287 651.312 214.266C659.169 203.808 668.274 202.454 680.163 201.604C703.94 199.903 725.148 197.434 745.723 205.652Z" fill="#076DFA"/>
<path d="M733.151 221.945H676.287C675.863 221.945 675.519 221.601 675.519 221.177C675.519 220.754 675.862 220.41 676.287 220.41H733.151C733.574 220.41 733.919 220.753 733.919 221.177C733.918 221.601 733.574 221.945 733.151 221.945Z" fill="white"/>
<path d="M736.677 233.098H679.813C679.389 233.098 679.046 232.755 679.046 232.331C679.046 231.907 679.389 231.563 679.813 231.563H736.677C737.101 231.563 737.445 231.907 737.445 232.331C737.445 232.755 737.101 233.098 736.677 233.098Z" fill="white"/>
<path d="M718.576 245.912H679.814C679.391 245.912 679.046 245.569 679.046 245.145C679.046 244.72 679.389 244.377 679.814 244.377H718.576C718.999 244.377 719.344 244.72 719.344 245.145C719.344 245.569 718.999 245.912 718.576 245.912Z" fill="white"/>
<path d="M793.595 101.388C787.358 112.32 787.711 126.239 792.724 137.78C797.738 149.322 806.96 158.653 817.403 165.691C815.264 159.791 816.323 154.084 820.48 150.811C824.638 147.537 827.145 147.168 832.365 148.05C851.812 151.334 870.721 151.333 890.364 149.03C894.42 148.555 898.613 147.933 902.036 145.712C906.551 142.783 909.034 137.438 909.744 132.108C911.049 122.3 908.579 109.204 903.971 100.443C897.269 87.703 882.842 80.5007 868.54 78.7543C847.705 76.2096 805.353 80.7767 793.595 101.388Z" fill="#4DD0BB"/>
<path d="M845.388 103.636H830.625C830.156 103.636 829.774 103.255 829.774 102.787C829.774 102.318 830.156 101.938 830.625 101.938H845.388C845.857 101.938 846.238 102.318 846.238 102.787C846.238 103.255 845.858 103.636 845.388 103.636Z" fill="white"/>
<path d="M886.958 103.636H854.429C853.96 103.636 853.579 103.255 853.579 102.787C853.579 102.318 853.96 101.938 854.429 101.938H886.958C887.427 101.938 887.808 102.318 887.808 102.787C887.808 103.255 887.427 103.636 886.958 103.636Z" fill="white"/>
<path d="M865.864 117.436H827.131C826.662 117.436 826.281 117.055 826.281 116.587C826.281 116.118 826.662 115.738 827.131 115.738H865.864C866.333 115.738 866.714 116.118 866.714 116.587C866.714 117.057 866.333 117.436 865.864 117.436Z" fill="white"/>
<path d="M883.464 117.436H875.969C875.5 117.436 875.119 117.055 875.119 116.587C875.119 116.118 875.5 115.738 875.969 115.738H883.464C883.933 115.738 884.315 116.118 884.315 116.587C884.315 117.057 883.935 117.436 883.464 117.436Z" fill="white"/>
<path d="M871.98 133.293H827.131C826.662 133.293 826.281 132.912 826.281 132.443C826.281 131.975 826.662 131.594 827.131 131.594H871.98C872.449 131.594 872.83 131.975 872.83 132.443C872.83 132.912 872.449 133.293 871.98 133.293Z" fill="white"/>
<path d="M836.726 194.197C840.997 175.821 861.213 162.744 879.752 166.365C898.905 170.107 913.295 188.459 932.751 190.023C950.872 191.478 967.051 177.84 985.189 176.604C1003.28 175.375 1019.77 186.52 1037.62 189.727C1069.05 195.377 1103.98 176.461 1132.05 191.676C1153.99 203.57 1161.51 232.979 1155.15 257.087C1148.79 281.194 1131.7 300.907 1114.03 318.51C1101.68 330.811 1088.43 342.792 1072.35 349.543C1056.27 356.293 1036.73 357.039 1022.15 347.478C997.554 331.354 995.484 293.47 971.227 276.845C954.832 265.61 933.257 267.385 913.417 266.062C888.941 264.433 881.321 253.842 864.612 239.643C849.437 226.761 830.922 219.182 836.726 194.197Z" fill="#01204A"/>
<path d="M1096.37 557.019C1093.88 493.221 1090.84 435.557 1090.84 435.557L1013.54 512.394C1013.54 512.394 1015.35 530.321 1018.8 557.019H1096.37Z" fill="#144361"/>
<path d="M1173.98 557.019C1163.89 507.471 1149.65 458.735 1118.02 441.375C1049.15 403.568 1048.38 477.769 1048.38 477.769C1048.38 477.769 1056.43 512.69 1074.96 557.019H1173.98Z" fill="#01204A"/>
<path d="M676.079 309.822C676.079 309.822 663.014 292.203 660.565 291.777C658.115 291.351 668.168 309.887 657.374 314.063C653.378 315.607 670.8 317.551 670.8 317.551C670.8 317.551 680.458 315.567 676.079 309.822Z" fill="#EF9C7B"/>
<path d="M1050.07 315.011C1036.31 253.796 1007.47 239.577 971.736 248.946C951.872 254.155 922.32 259.705 908.787 273.771C817.779 368.357 677.024 311.417 677.024 311.417L670.511 317.654C759.386 366.627 863.15 369.834 900.065 363.671C934.556 452.882 998.01 506.086 1013.54 512.391C1027.03 502.977 1108.81 443.858 1103.7 434.708C1073.39 380.428 1069.88 403.185 1050.07 315.011Z" fill="#4DD0BB"/>
<path d="M884.873 212.81C884.873 212.81 909.335 256.345 955.386 255.45C955.386 255.45 955.25 289.31 945.116 302.613C922.906 331.758 908.084 283.269 908.084 283.269C908.084 283.269 915.791 258.598 883.196 230.797C850.601 202.995 884.873 212.81 884.873 212.81Z" fill="#FFB79A"/>
<path d="M871.905 258.131C856.922 258.953 842.235 227.931 841.192 213.468C840.15 199.005 849.988 172.847 869.454 174.689C883.66 176.033 897.597 182.833 893.411 225.107C892.968 229.585 886.888 257.309 871.905 258.131Z" fill="#FFC1A9"/>
<path d="M1189.72 271.877C1154.63 259.827 1109.95 249.535 1055.32 246.241C945.384 239.612 964.492 260.875 969.459 287.729C972.984 306.777 976.993 325.71 995.933 321.546C1035.86 312.765 1106.81 282.774 1189.72 298.08V271.877Z" fill="#4DD0BB"/>
<path d="M844.747 183.355C844.747 183.355 902.526 234.16 955.382 222.462C955.386 222.465 883.22 134.288 844.747 183.355Z" fill="#01204A"/>
</g>
<defs>
<clipPath id="clip0">
<rect width="1512" height="541" fill="white"/>
</clipPath>
</defs>
</svg>
