<svg width="70" height="80" viewBox="0 0 70 80" fill="none" xmlns="http://www.w3.org/2000/svg">
<g clip-path="url(#clip0)">
<path d="M26.6672 10H10V13.3328H26.6672V10Z" fill="white"/>
<path d="M13.3328 16.6672H10V20H13.3328V16.6672Z" fill="white"/>
<path d="M20 16.6672H16.6672V20H20V16.6672Z" fill="white"/>
<path d="M62.8453 13.8219L49.5125 0.489063C49.2 0.176563 48.7766 0 48.3344 0H5C2.23906 0 0 2.23906 0 5V75C0 77.7609 2.23906 80 5 80H38.3328V76.6672H5C4.07969 76.6672 3.33281 75.9203 3.33281 75V5C3.33281 4.07969 4.07969 3.33281 5 3.33281H47.6438L60 15.6906V38.3344H63.3328V15C63.3328 14.5578 63.1578 14.1344 62.8453 13.8219Z" fill="white"/>
<path d="M51.6672 13.3328C50.7469 13.3328 50 12.586 50 11.6656V1.66565H46.6672V11.6656C46.6672 14.4266 48.9063 16.6656 51.6672 16.6656H55V13.3328H51.6672Z" fill="white"/>
<path d="M68.3327 56.6672H63.3327V60H66.6656V75C66.6656 75.9204 65.9187 76.6672 64.9984 76.6672H48.3328C47.4124 76.6672 46.6656 75.9204 46.6656 75V60H49.9999V56.6672H45C44.0796 56.6672 43.3328 57.4141 43.3328 58.3344V75C43.3328 77.761 45.5718 80 48.3328 80H64.9999C67.7609 80 69.9999 77.761 69.9999 75V58.3329C69.9999 57.4125 69.253 56.6672 68.3327 56.6672Z" fill="white"/>
<path d="M61.6675 43.3328H51.6675C51.6206 43.3313 51.5753 43.3313 51.53 43.3328C49.7269 43.3703 48.2972 44.8641 48.3347 46.6657V53.3328H51.6675V46.6657H61.6675V53.3328H65.0003V46.6657C65.0019 46.6188 65.0019 46.5735 65.0003 46.5281C64.9628 44.725 63.4691 43.2953 61.6675 43.3328Z" fill="white"/>
<path d="M56.6672 56.6672C53.9063 56.6672 51.6672 58.9063 51.6672 61.6672C51.6672 64.4282 53.9063 66.6672 56.6672 66.6672C59.4282 66.6672 61.6672 64.4282 61.6672 61.6672C61.6672 58.9063 59.4282 56.6672 56.6672 56.6672ZM56.6672 63.3329C55.7469 63.3329 55 62.586 55 61.6657C55 60.7454 55.7469 60 56.6672 60C57.5875 60 58.3344 60.7469 58.3344 61.6672C58.3344 62.5875 57.5875 63.3329 56.6672 63.3329Z" fill="white"/>
<path d="M58.3328 65H55V73.3328H58.3328V65Z" fill="white"/>
</g>
<defs>
<clipPath id="clip0">
<rect width="70" height="80" fill="white"/>
</clipPath>
</defs>
</svg>
