<svg width="90" height="120" viewBox="0 0 90 120" fill="none" xmlns="http://www.w3.org/2000/svg">
<g clip-path="url(#clip0)">
<path d="M44.5317 65.625C48.4973 65.625 52.0504 63.1125 53.3723 59.3742C53.8035 58.1531 53.1637 56.8148 51.945 56.3836C50.7262 55.9523 49.3856 56.5922 48.9543 57.8109C48.291 59.6812 46.5145 60.9375 44.5317 60.9375C42.5489 60.9375 40.7723 59.6812 40.1114 57.8133C39.6801 56.5922 38.3418 55.9547 37.1207 56.3859C35.8996 56.8172 35.2621 58.1554 35.6934 59.3765C37.0129 63.1125 40.566 65.625 44.5317 65.625Z" fill="#50D5B8"/>
<path d="M67.9688 120C69.2632 120 70.3125 118.951 70.3125 117.656C70.3125 116.362 69.2632 115.312 67.9688 115.312C66.6743 115.312 65.625 116.362 65.625 117.656C65.625 118.951 66.6743 120 67.9688 120Z" fill="#0367FF"/>
<path d="M78.5156 115.312C77.2219 115.312 76.1719 116.363 76.1719 117.656C76.1719 118.95 77.2219 120 78.5156 120H86.7188C88.0125 120 89.0625 118.95 89.0625 117.656V98.2922C89.0625 87.7875 81.3305 78.8953 70.9523 77.4117L61.5352 76.0664C58.9852 75.7008 56.8945 73.7789 56.3742 71.1984C61.3148 67.95 65.8172 62.7258 69.2531 56.25H70.3125C75.4828 56.25 79.6875 52.0453 79.6875 46.875C79.6875 43.3711 77.6883 40.1906 74.6484 38.5969C74.6484 38.5969 75 30.5016 75 30.4688C75 13.6688 61.3312 0 44.5312 0C27.7313 0 14.0625 13.6688 14.0625 30.4688C14.0625 30.5039 14.0625 30.5367 14.0648 30.5695L14.4141 38.5969C11.3742 40.1906 9.375 43.3711 9.375 46.875C9.375 52.0453 13.5797 56.25 18.75 56.25H19.8094C23.243 62.7258 27.7477 67.95 32.6883 71.1984C32.1727 73.7625 30.0914 75.6984 27.5297 76.0664L18.1125 77.4117C7.71328 78.8977 0 87.8039 0 98.2922V117.656C0 118.95 1.05 120 2.34375 120H57.4219C58.7156 120 59.7656 118.95 59.7656 117.656C59.7656 116.363 58.7156 115.312 57.4219 115.312H46.875V96.9164L59.9766 80.5359C60.2719 80.6039 60.5695 80.6648 60.8719 80.707L65.625 81.3867V96.9656C62.8969 97.9336 60.9375 100.537 60.9375 103.594C60.9375 107.47 64.0922 110.625 67.9688 110.625C71.8453 110.625 75 107.47 75 103.594C75 100.537 73.0406 97.9336 70.3125 96.9656V82.057C78.3305 83.2148 84.375 90.1898 84.375 98.2922V115.312H78.5156ZM44.5312 92.3414L33.4219 78.4523C35.0531 77.1562 36.2695 75.4219 36.9328 73.4531C39.4336 74.4797 41.9789 75 44.5336 75C47.0883 75 49.6336 74.4797 52.1344 73.4531C52.7977 75.4219 54.0141 77.1586 55.643 78.4523L44.5312 92.3414ZM44.5312 4.6875C58.7297 4.6875 70.2867 16.2258 70.3125 30.4195L70.0219 37.1016C67.4625 36.1711 65.625 33.7102 65.625 30.8367V30.4688C65.625 29.175 64.575 28.125 63.2812 28.125H55.0172C49.4414 28.125 44.4305 25.0289 41.9391 20.0461C41.4539 19.0734 40.3617 18.5648 39.3047 18.8133C38.2477 19.0641 37.5 20.0086 37.5 21.0938C37.5 24.9703 34.3453 28.125 30.4688 28.125H25.7812C24.4875 28.125 23.4375 29.175 23.4375 30.4688V30.8367C23.4375 33.7125 21.6 36.1734 19.0406 37.1039L18.75 30.4195C18.7758 16.2258 30.3328 4.6875 44.5312 4.6875ZM23.3414 52.8656C22.9453 52.0687 22.132 51.5625 21.2414 51.5625H18.75C16.1648 51.5625 14.0625 49.4602 14.0625 46.875C14.0625 43.1414 17.6203 42.4219 18.1055 42.1078C23.0812 41.5219 27.0891 37.6992 27.9516 32.8125H30.4688C34.9406 32.8125 38.8383 30.293 40.8117 26.5992C44.4047 30.518 49.5023 32.8125 55.0172 32.8125H61.1109C61.9734 37.6945 65.9789 41.5172 70.957 42.1055C71.4305 42.4125 75.0023 43.1578 75.0023 46.875C75.0023 49.4602 72.9 51.5625 70.3148 51.5625H67.8234C66.9328 51.5625 66.1195 52.0664 65.7234 52.8656C61.5961 61.1859 53.8266 70.3125 44.5312 70.3125C35.2641 70.3125 27.5297 61.3125 23.3414 52.8656ZM4.6875 115.312V98.2922C4.6875 90.1898 10.732 83.2148 18.75 82.057V89.2992C13.4086 90.3891 9.375 95.1234 9.375 100.781V108.281C9.375 109.575 10.425 110.625 11.7188 110.625H16.4062C17.7 110.625 18.75 109.575 18.75 108.281C18.75 106.988 17.7 105.938 16.4062 105.938H14.0625V100.781C14.0625 96.9047 17.2172 93.75 21.0938 93.75C24.9703 93.75 28.125 96.9047 28.125 100.781V105.938H25.7812C24.4875 105.938 23.4375 106.988 23.4375 108.281C23.4375 109.575 24.4875 110.625 25.7812 110.625H30.4688C31.7625 110.625 32.8125 109.575 32.8125 108.281V100.781C32.8125 95.1211 28.7789 90.3867 23.4375 89.2992V81.3867L28.193 80.707C28.4953 80.6648 28.7906 80.6039 29.0836 80.5359L42.1852 96.9164V115.312H4.6875ZM67.9688 105.938C66.6773 105.938 65.625 104.885 65.625 103.594C65.625 102.302 66.6773 101.25 67.9688 101.25C69.2602 101.25 70.3125 102.302 70.3125 103.594C70.3125 104.885 69.2602 105.938 67.9688 105.938Z" fill="#0367FF"/>
</g>
<defs>
<clipPath id="clip0">
<rect width="89.0625" height="120" fill="white"/>
</clipPath>
</defs>
</svg>
