<svg width="76" height="80" viewBox="0 0 76 80" fill="none" xmlns="http://www.w3.org/2000/svg">
<g clip-path="url(#clip0)">
<path d="M17.1875 19.6859C16.325 19.6859 15.625 20.3859 15.625 21.2484C15.625 22.1109 16.325 22.8109 17.1875 22.8109C18.05 22.8109 18.75 22.1109 18.75 21.2484C18.75 20.3859 18.05 19.6859 17.1875 19.6859Z" fill="white"/>
<path d="M31.2483 48.9032H26.5608V44.2157C26.5608 43.3532 25.8608 42.6532 24.9983 42.6532C24.1358 42.6532 23.4358 43.3532 23.4358 44.2157V48.9032H18.7483C17.8858 48.9032 17.1858 49.6032 17.1858 50.4657C17.1858 51.3282 17.8858 52.0282 18.7483 52.0282H23.4358V56.7157C23.4358 57.5782 24.1358 58.2782 24.9983 58.2782C25.8608 58.2782 26.5608 57.5782 26.5608 56.7157V52.0282H31.2483C32.1108 52.0282 32.8108 51.3282 32.8108 50.4657C32.8108 49.6032 32.1108 48.9032 31.2483 48.9032Z" fill="white"/>
<path d="M73.4188 50.3094C69.9641 44.3266 62.3281 42.2797 56.3453 45.7344L49.9984 49.3984V35.8297C49.9984 34.1516 49.4437 32.4875 48.4359 31.1422L40.6234 20.7266V16.2906C42.4422 15.6453 43.7484 13.9094 43.7484 11.8719V4.6875C43.7484 2.10312 41.6453 0 39.0609 0H10.9375C8.35312 0 6.25 2.10312 6.25 4.6875V11.875C6.25 13.9125 7.55625 15.6484 9.375 16.2937V20.7297L1.5625 31.1453C0.554688 32.4906 0 34.1547 0 35.8313V66.0906C0 70.3984 3.50469 73.9031 7.8125 73.9031H32.9219C36.425 79.775 43.9797 81.7406 49.9 78.3219L68.8438 67.3844C74.7734 63.9594 76.8891 56.325 73.4188 50.3094ZM9.375 4.6875C9.375 3.82656 10.0766 3.125 10.9375 3.125H39.0609C39.9219 3.125 40.6234 3.82656 40.6234 4.6875V11.875C40.6234 12.7359 39.9219 13.4375 39.0609 13.4375H10.9375C10.0766 13.4375 9.375 12.7359 9.375 11.875V4.6875ZM4.0625 33.0188L12.1875 22.1859C12.3906 21.9156 12.5 21.5859 12.5 21.2484V16.5609H37.4984V19.6859H23.4375C22.575 19.6859 21.875 20.3859 21.875 21.2484C21.875 22.1109 22.575 22.8109 23.4375 22.8109H38.2797L45.9344 33.0172C46.4344 33.6844 46.7453 34.4844 46.8391 35.3094H3.15781C3.25156 34.4859 3.5625 33.6859 4.0625 33.0188ZM7.8125 70.7781C5.22812 70.7781 3.125 68.675 3.125 66.0906V64.5125H31.5125C31.0172 66.5375 31.0203 68.7016 31.5875 70.7781H7.8125ZM32.7375 61.4031H3.125V38.4359H46.8734V51.2031L37.4016 56.6719C35.4266 57.8125 33.8297 59.4375 32.7375 61.4031ZM48.3391 75.6141C43.8547 78.2031 38.125 76.6719 35.5344 72.1844C32.9312 67.6547 34.5094 61.95 38.9641 59.3766L47.4453 54.4797L56.8203 70.7172L48.3391 75.6141ZM67.2813 64.6781L59.525 69.1563L50.15 52.9187L57.9063 48.4406C62.3938 45.85 68.1203 47.3844 70.7125 51.8719C73.3141 56.3813 71.7313 62.1078 67.2813 64.6781Z" fill="white"/>
</g>
<defs>
<clipPath id="clip0">
<rect width="75.0938" height="80" fill="white"/>
</clipPath>
</defs>
</svg>
