<svg width="120" height="120" viewBox="0 0 120 120" fill="none" xmlns="http://www.w3.org/2000/svg">
<g clip-path="url(#clip0)">
<path d="M90 120C89.6695 120 89.3391 119.935 89.0297 119.806C87.8391 119.299 60 107.271 60 82.6806V61.7861C60 60.7103 60.6844 59.7611 61.6992 59.4166L89.1984 50.1306C89.7187 49.9548 90.2836 49.9548 90.7992 50.1306L118.298 59.4166C119.313 59.7564 119.998 60.7126 119.998 61.7861V82.6806C119.998 107.271 92.1586 119.302 90.968 119.806C90.6609 119.935 90.3305 120 90 120ZM64.9992 63.5861V82.6806C64.9992 101.602 85.275 112.47 90 114.745C94.7203 112.465 115.001 101.55 115.001 82.6806V63.5861L90 55.1392L64.9992 63.5861Z" fill="#0367FF"/>
<path d="M87.4992 94.9992C87.4547 94.9992 87.4031 94.9992 87.3633 94.9945C86.6484 94.9546 85.9922 94.6195 85.5492 94.0593L75.5484 81.5601C74.6883 80.4796 74.8594 78.9093 75.9375 78.0445C77.0273 77.189 78.5977 77.3648 79.4531 78.4335L87.7031 88.7484L103.228 73.2281C104.203 72.2531 105.787 72.2531 106.762 73.2281C107.737 74.2031 107.737 75.7874 106.762 76.7624L89.2617 94.2632C88.8 94.7343 88.1601 94.9992 87.4992 94.9992Z" fill="#50D5B8"/>
<path d="M47.5008 105H12.4992C5.60391 105 0 99.3961 0 92.5008V27.4992C0 20.6039 5.60391 15 12.4992 15H22.5C23.8805 15 25.0008 16.1203 25.0008 17.5008C25.0008 18.8812 23.8805 19.9992 22.5 19.9992H12.4992C8.36484 19.9992 4.99922 23.3648 4.99922 27.4992V92.4984C4.99922 96.6328 8.36484 99.9984 12.4992 99.9984H47.4984C48.8789 99.9984 49.9992 101.119 49.9992 102.499C49.9992 103.88 48.8789 105 47.5008 105Z" fill="#0367FF"/>
<path d="M82.4994 42.4992C81.119 42.4992 79.9986 41.3789 79.9986 39.9984V27.4992C79.9986 23.3648 76.633 19.9992 72.4986 19.9992H62.4979C61.1174 19.9992 59.9971 18.8789 59.9971 17.4984C59.9971 16.118 61.1197 15 62.5002 15H72.501C79.3963 15 85.0002 20.6039 85.0002 27.4992V39.9984C85.0002 41.3789 83.8799 42.4992 82.4994 42.4992Z" fill="#0367FF"/>
<path d="M57.499 30H27.499C23.3646 30 19.999 26.6344 19.999 22.5V12.4992C19.999 11.1188 21.1193 9.99844 22.4998 9.99844H30.2506C31.4107 4.30078 36.4639 0 42.499 0C48.5342 0 53.5896 4.30078 54.7498 10.0008H62.5006C63.8811 10.0008 65.0014 11.1211 65.0014 12.5016V22.5C64.999 26.6344 61.6357 30 57.499 30ZM25.0006 15V22.5C25.0006 23.8758 26.1256 25.0008 27.5014 25.0008H57.5014C58.8771 25.0008 60.0021 23.8758 60.0021 22.5V15H52.5021C51.1217 15 50.0014 13.8797 50.0014 12.4992C50.0014 8.36484 46.6357 4.99922 42.5014 4.99922C38.367 4.99922 35.0014 8.36484 35.0014 12.4992C35.0014 13.8797 33.8811 15 32.5006 15H25.0006Z" fill="#0367FF"/>
<path d="M67.5 45.0001H17.5008C16.1203 45.0001 15 43.8798 15 42.4993C15 41.1188 16.1203 39.9985 17.5008 39.9985H67.5C68.8805 39.9985 70.0008 41.1188 70.0008 42.4993C70.0008 43.8798 68.8805 45.0001 67.5 45.0001Z" fill="#0367FF"/>
<path d="M47.5008 60.0001H17.5008C16.1203 60.0001 15 58.8798 15 57.4993C15 56.1188 16.1203 54.9985 17.5008 54.9985H47.5008C48.8812 54.9985 50.0016 56.1188 50.0016 57.4993C50.0016 58.8798 48.8789 60.0001 47.5008 60.0001Z" fill="#0367FF"/>
<path d="M47.5008 75.0001H17.5008C16.1203 75.0001 15 73.8798 15 72.4993C15 71.1188 16.1203 69.9985 17.5008 69.9985H47.5008C48.8812 69.9985 50.0016 71.1188 50.0016 72.4993C50.0016 73.8798 48.8789 75.0001 47.5008 75.0001Z" fill="#0367FF"/>
</g>
<defs>
<clipPath id="clip0">
<rect width="120" height="120" fill="white"/>
</clipPath>
</defs>
</svg>
