<svg width="67" height="80" viewBox="0 0 67 80" fill="none" xmlns="http://www.w3.org/2000/svg">
<g clip-path="url(#clip0)">
<path d="M65.3335 46.6667H56.0002V1.33333C56.0002 0.596667 55.4035 0 54.6669 0H12.0002C11.2635 0 10.6669 0.596667 10.6669 1.33333V46.6667H1.33353C0.970199 46.6667 0.621865 46.815 0.370199 47.0767C-0.139801 47.6083 -0.121468 48.4517 0.410199 48.9617L32.4102 79.6283C32.6585 79.8667 32.9885 79.9983 33.3335 79.9983C33.6769 79.9983 34.0085 79.865 34.2569 79.6283L66.2569 48.9617C66.5202 48.71 66.6669 48.3617 66.6669 47.9983C66.6669 47.2633 66.0702 46.6667 65.3335 46.6667ZM33.3335 76.82L4.6502 49.3333H12.0002C12.7369 49.3333 13.3335 48.7367 13.3335 48V2.66667H53.3335V48C53.3335 48.7367 53.9302 49.3333 54.6669 49.3333H62.0169L33.3335 76.82Z" fill="white"/>
<path d="M33.3333 20C36.2783 20 38.6666 22.3883 38.6666 25.3333H41.3333C41.3266 21.4333 38.5116 18.1066 34.6666 17.4533V14.6666H32V17.4533C27.6483 18.215 24.7383 22.3616 25.5 26.7133C26.1666 30.5233 29.465 33.3116 33.3333 33.3333C36.2783 33.3333 38.6666 35.7216 38.6666 38.6666C38.6666 41.6116 36.2783 44 33.3333 44C30.3883 44 28 41.6116 28 38.6666H25.3333C25.34 42.5666 28.155 45.8933 32 46.5466V49.3333H34.6666V46.5466C39.0183 45.785 41.93 41.6383 41.1666 37.2866C40.5 33.4766 37.2016 30.6883 33.3333 30.6666C30.3883 30.6666 28 28.2783 28 25.3333C28 22.3883 30.3883 20 33.3333 20Z" fill="white"/>
<path d="M18.6666 5.33337H15.9999V8.00004H18.6666V5.33337Z" fill="white"/>
<path d="M24 5.33337H21.3333V8.00004H24V5.33337Z" fill="white"/>
<path d="M29.3333 5.33337H26.6666V8.00004H29.3333V5.33337Z" fill="white"/>
<path d="M34.6667 5.33337H32V8.00004H34.6667V5.33337Z" fill="white"/>
<path d="M40 5.33337H37.3333V8.00004H40V5.33337Z" fill="white"/>
<path d="M45.3333 5.33337H42.6666V8.00004H45.3333V5.33337Z" fill="white"/>
<path d="M50.6667 5.33337H48V8.00004H50.6667V5.33337Z" fill="white"/>
</g>
<defs>
<clipPath id="clip0">
<rect width="66.6667" height="80" fill="white"/>
</clipPath>
</defs>
</svg>
