<svg width="99" height="120" viewBox="0 0 99 120" fill="none" xmlns="http://www.w3.org/2000/svg">
<g clip-path="url(#clip0)">
<path d="M14.1302 55.0897L32.0036 93.9421C33.1896 96.5179 35.3153 98.4819 37.9872 99.4686C39.1966 99.9163 40.4505 100.139 41.6974 100.139C43.2091 100.139 44.7161 99.8132 46.127 99.1616L53.1935 95.9038C54.8786 95.1233 55.6192 93.1194 54.8411 91.4413L48.6325 77.9436C47.7091 75.9468 45.5106 76.0944 44.7841 76.1436L41.2942 76.385L33.4989 59.4374L35.9575 56.9366C36.4638 56.4186 38.0083 54.8413 37.0825 52.8397L30.8786 39.3538C30.5083 38.5382 29.838 37.9147 28.9942 37.6007C28.1458 37.2866 27.2271 37.3218 26.4114 37.6991L19.3474 40.9546C14.0153 43.4155 11.6739 49.7554 14.1302 55.0897ZM27.745 40.9616L33.7872 54.096C33.7263 54.178 33.6231 54.2999 33.4474 54.478L30.1403 57.8389C29.6271 58.3593 29.4911 59.1421 29.7958 59.8053L38.606 78.9585C38.9106 79.6218 39.5997 80.0272 40.3239 79.978L45.0208 79.6522C45.2739 79.6358 45.4356 79.6358 45.5388 79.6405L51.581 92.7725L44.6505 95.9671C42.9278 96.7593 40.9942 96.8319 39.2013 96.1686C37.4083 95.5054 35.9856 94.1929 35.1911 92.4702L17.3224 53.6225C15.6771 50.046 17.245 45.7991 20.8169 44.1538L27.745 40.9616Z" fill="#0367FF"/>
<path d="M87.0938 33.6164H73.2234V9.29766C73.2211 4.17187 69.0516 0 63.9281 0H51.3937H21.8273H9.29297C4.16953 0 0 4.17187 0 9.29766V55.3125C0 56.2828 0.7875 57.0703 1.75781 57.0703C2.72812 57.0703 3.51562 56.2828 3.51562 55.3125V9.29766C3.51562 6.11016 6.10781 3.51562 9.29297 3.51562H20.0695V6.74766C20.0695 9.36563 22.1977 11.4961 24.8156 11.4961H48.4055C51.0234 11.4961 53.1516 9.36563 53.1516 6.74766V3.51562H63.9281C67.1133 3.51562 69.7055 6.11016 69.7055 9.29766V33.6164H64.7109C58.4508 33.6164 53.3602 38.7094 53.3602 44.9672V67.3641C53.3602 70.2023 54.3937 72.8695 56.2898 74.9648L55.8563 80.9906C55.8094 81.6398 56.1258 82.2609 56.6766 82.6078C56.9602 82.7859 57.2859 82.875 57.6094 82.875C57.9141 82.875 58.2164 82.7977 58.4906 82.6383L65.2594 78.7219H69.7078V108.938H3.51562V63.4313C3.51562 62.4609 2.72812 61.6734 1.75781 61.6734C0.7875 61.6734 0 62.4609 0 63.4313V110.695C0 115.826 4.16953 120 9.29297 120H63.9281C69.0516 120 73.2211 115.826 73.2211 110.695V78.7219H77.7117C78.682 78.7219 79.4695 77.9344 79.4695 76.9641C79.4695 75.9938 78.682 75.2063 77.7117 75.2063H64.7859C64.4766 75.2063 64.1742 75.2883 63.9047 75.443L59.5992 77.9344L59.8523 74.4352C59.8898 73.9125 59.693 73.4016 59.3156 73.0383C57.743 71.5336 56.8781 69.518 56.8781 67.3664V44.9695C56.8781 40.65 60.3937 37.1344 64.7133 37.1344H87.0938C91.4109 37.1344 94.9219 40.65 94.9219 44.9695V67.3664C94.9219 71.6906 91.4109 75.2086 87.0938 75.2086H85.8187C84.8484 75.2086 84.0609 75.9961 84.0609 76.9664C84.0609 77.9367 84.8484 78.7242 85.8187 78.7242H87.0938C93.3492 78.7242 98.4375 73.6289 98.4375 67.3664V44.9695C98.4375 38.7094 93.3492 33.6164 87.0938 33.6164ZM49.6359 6.74766C49.6359 7.42734 49.0852 7.98047 48.4055 7.98047H24.8156C24.15 7.98047 23.5852 7.41563 23.5852 6.74766V3.51562H49.6336V6.74766H49.6359ZM63.9281 116.484H9.29297C6.71953 116.484 4.53281 114.787 3.7875 112.453H69.4312C68.6883 114.787 66.5016 116.484 63.9281 116.484Z" fill="#0367FF"/>
<path d="M87.4031 59.2266V52.3758C87.4031 50.7446 86.0742 49.4157 84.443 49.4157H82.2844V47.2524C82.2844 45.6211 80.9555 44.2922 79.3242 44.2922H72.4781C70.8422 44.2922 69.5133 45.6211 69.5133 47.2524V49.4157H67.3617C65.7258 49.4157 64.3945 50.7446 64.3945 52.3758V59.2266C64.3945 60.8602 65.7258 62.1868 67.3617 62.1868H69.5133V64.35C69.5133 65.9813 70.8445 67.3102 72.4781 67.3102H79.3242C80.9555 67.3102 82.2844 65.9813 82.2844 64.35V62.1868H84.443C86.0766 62.1868 87.4031 60.8579 87.4031 59.2266ZM83.8875 58.6711H80.5266C79.5562 58.6711 78.7687 59.4586 78.7687 60.4289V63.7946H73.0289V60.4289C73.0289 59.4586 72.2414 58.6711 71.2711 58.6711H67.9102V52.9313H71.2711C72.2414 52.9313 73.0289 52.1438 73.0289 51.1735V47.8102H78.7687V51.1735C78.7687 52.1438 79.5562 52.9313 80.5266 52.9313H83.8875V58.6711Z" fill="#50D5B8"/>
<path d="M20.3369 27.4944C20.3369 28.4647 21.1244 29.2522 22.0947 29.2522H50.6299C51.6002 29.2522 52.3877 28.4647 52.3877 27.4944C52.3877 26.5241 51.6002 25.7366 50.6299 25.7366H22.0947C21.1244 25.7366 20.3369 26.5241 20.3369 27.4944Z" fill="#0367FF"/>
<path d="M46.5867 21.0095C47.557 21.0095 48.3445 20.222 48.3445 19.2517C48.3445 18.2814 47.557 17.4939 46.5867 17.4939H26.1445C25.1742 17.4939 24.3867 18.2814 24.3867 19.2517C24.3867 20.222 25.1742 21.0095 26.1445 21.0095H46.5867Z" fill="#0367FF"/>
</g>
<defs>
<clipPath id="clip0">
<rect width="98.4375" height="120" fill="white"/>
</clipPath>
</defs>
</svg>
