<svg width="20" height="20" viewBox="0 0 20 20" fill="none" xmlns="http://www.w3.org/2000/svg">
<g clip-path="url(#clip0)">
<path d="M4.76563 19.374V19.375C4.76563 19.6985 5.02793 19.961 5.35157 19.961H11.211C11.5346 19.961 11.7969 19.6985 11.7969 19.375C11.7969 18.4058 12.5855 17.6172 13.5547 17.6172H15.8977C16.2214 17.6172 16.4837 17.3548 16.4837 17.0313V14.0235C16.4837 13.0541 17.273 12.2657 18.2422 12.2657C18.4588 12.2657 18.6576 12.1462 18.7594 11.9551C18.8611 11.7641 18.8494 11.5325 18.7285 11.3529C18.7084 11.3228 16.885 8.60994 16.4049 7.89354C16.4051 7.08086 16.4051 6.63576 16.4051 6.63576C16.4051 6.61058 16.4035 6.58525 16.4002 6.56022C15.9575 3.15216 13.163 0.397946 9.75573 0.01144C5.16709 -0.509191 1.25 3.06382 1.25 7.57814C1.25 9.08159 1.68808 10.5367 2.51679 11.7862C3.96699 13.9722 4.76563 16.6669 4.76563 19.374ZM9.62359 1.17584C12.4903 1.50116 14.8445 3.81074 15.234 6.67451C15.234 6.80955 15.234 7.29387 15.2336 8.07131C15.2336 8.18712 15.2678 8.30019 15.3321 8.39647C15.4827 8.62246 16.5912 10.2735 17.257 11.2641C16.3025 11.606 15.5754 12.43 15.3707 13.441C14.5291 13.4699 13.048 13.6599 11.9602 14.7887C11.7356 15.0217 11.7424 15.3926 11.9754 15.6171C12.2086 15.8417 12.5794 15.8348 12.804 15.6018C13.5521 14.8255 14.6267 14.6535 15.3125 14.6173V16.4452H13.5547C12.1399 16.4452 10.9561 17.4534 10.6838 18.789H5.92607C5.81895 16.0527 4.96461 13.3564 3.49335 11.1383C2.79236 10.0815 2.42188 8.85042 2.42188 7.57799C2.42188 3.84308 5.64836 0.72479 9.62359 1.17584Z" fill="white"/>
<path d="M12.8383 6.79276L10.7367 6.26674L12.2937 4.76042C12.3642 4.69227 12.3792 4.58493 12.3302 4.50002C12.2812 4.41512 12.1807 4.37443 12.0864 4.40141L10.0034 4.99669L10.5987 2.91366C10.6256 2.81943 10.585 2.71894 10.5001 2.66989C10.4152 2.62084 10.3078 2.63594 10.2397 2.70634L8.73334 4.26336L8.20733 2.16179C8.1835 2.06668 8.09808 2 8.00007 2C7.90206 2 7.81658 2.06671 7.79281 2.16179L7.2668 4.26336L5.76042 2.70634C5.69227 2.63591 5.58493 2.62084 5.50002 2.66986C5.41512 2.71885 5.37445 2.81937 5.40141 2.91363L5.99669 4.99666L3.91366 4.40138C3.8194 4.37448 3.71894 4.41512 3.66989 4.49999C3.62087 4.5849 3.63594 4.69224 3.70634 4.7604L5.26336 6.26672L3.16179 6.79273C3.06668 6.81653 3 6.90197 3 6.99999C3 7.09803 3.06671 7.18347 3.16179 7.20725L5.26336 7.73326L3.70634 9.23958C3.63588 9.30773 3.62084 9.41507 3.66989 9.49998C3.71888 9.58486 3.81943 9.62555 3.91366 9.59859L5.99669 9.00331L5.40141 11.0863C5.37448 11.1806 5.41512 11.2811 5.50002 11.3301C5.58496 11.3791 5.6923 11.3641 5.76042 11.2937L7.26677 9.73664L7.79278 11.8382C7.81658 11.9333 7.90203 12 8.00004 12C8.09809 12 8.18353 11.9333 8.2073 11.8382L8.73331 9.73664L10.2396 11.2937C10.3081 11.3644 10.4194 11.3788 10.5036 11.3279C10.5853 11.2787 10.6249 11.1781 10.5987 11.0863L10.0034 9.00334L12.0864 9.59862C12.1781 9.62481 12.2787 9.5852 12.328 9.50356C12.3789 9.41931 12.3644 9.30805 12.2937 9.23958L10.7367 7.73326L12.8383 7.20725C12.9334 7.18345 13.0001 7.09803 13.0001 6.99999C13.0001 6.90197 12.9334 6.81653 12.8383 6.79276ZM10.2598 7.41209C10.1003 7.45198 10.0447 7.65842 10.1631 7.77295L11.383 8.95313L9.75093 8.48674C9.59277 8.44145 9.44159 8.59277 9.48677 8.7509L9.95315 10.3829L8.77298 9.16306C8.65847 9.04469 8.45204 9.1003 8.41212 9.25976L8.00001 10.9063L7.58791 9.25976C7.54805 9.10042 7.34161 9.04463 7.22705 9.16306L6.04687 10.383L6.51326 8.75093C6.55847 8.59277 6.40725 8.44159 6.2491 8.48677L4.61707 8.95315L5.83697 7.77298C5.95534 7.65847 5.8997 7.45204 5.74026 7.41212L4.09373 7.00001L5.74026 6.58791C5.8997 6.54802 5.95534 6.34158 5.83697 6.22705L4.61707 5.04687L6.2491 5.51326C6.40725 5.55841 6.55847 5.40728 6.51326 5.2491L6.04687 3.61704L7.22705 4.83694C7.34156 4.95532 7.54799 4.89967 7.58791 4.74024L8.00001 3.09371L8.41212 4.74024C8.45201 4.89967 8.65844 4.95532 8.77298 4.83694L9.95315 3.61704L9.48677 5.24907C9.44156 5.40728 9.59277 5.5583 9.75093 5.51323L11.383 5.04685L10.1631 6.22702C10.1073 6.28099 10.0852 6.36092 10.1052 6.43587C10.1253 6.51083 10.1844 6.569 10.2598 6.58783L11.9063 6.99993L10.2598 7.41209Z" fill="white"/>
<path d="M7.83331 6.34801C7.95032 6.34801 8.04519 6.25314 8.04519 6.13614V5.50847C8.04519 5.22811 7.81708 5 7.53672 5C7.24579 5 7 5.23285 7 5.50847C7 5.50982 7 5.51115 7.00003 5.5125L7.02825 6.99381C7.02949 7.27313 7.25712 7.5 7.53672 7.5C7.81708 7.5 8.04519 7.27189 8.04519 6.99153C8.04519 6.87453 7.95032 6.77966 7.83331 6.77966C7.71631 6.77966 7.62144 6.87453 7.62144 6.99153C7.62144 7.03825 7.58341 7.07628 7.53669 7.07628C7.48997 7.07628 7.45194 7.03825 7.45194 6.99153C7.45194 6.99018 7.45194 6.98885 7.45191 6.9875L7.42372 5.50737C7.42485 5.47128 7.48016 5.42372 7.53672 5.42372C7.58344 5.42372 7.62147 5.46175 7.62147 5.50847V6.13611C7.62147 6.25317 7.71628 6.34801 7.83331 6.34801Z" fill="white"/>
<path d="M7.96191 8.30884C7.96186 8.30873 7.97461 8.33938 7.96191 8.30884V8.30884Z" fill="white"/>
<path d="M7.96201 8.30886C7.89038 8.11786 7.6847 7.99408 7.48458 8.00022C7.2744 8.00666 7.08615 8.14939 7.02282 8.34968C6.95905 8.55136 7.03212 8.77719 7.20225 8.90296C7.37032 9.02724 7.6035 9.03238 7.77751 8.91703C7.97411 8.78671 8.05254 8.52633 7.96201 8.30886ZM7.58138 8.51742C7.56067 8.62158 7.39857 8.5903 7.41769 8.48603C7.43734 8.37857 7.60297 8.41149 7.58138 8.51742Z" fill="white"/>
</g>
<defs>
<clipPath id="clip0">
<rect width="20" height="20" fill="white"/>
</clipPath>
</defs>
</svg>
