<svg width="20" height="19" viewBox="0 0 20 19" fill="none" xmlns="http://www.w3.org/2000/svg">
<g clip-path="url(#clip0)">
<path d="M9.73047 18.1171L1.73438 10.121C-0.578125 7.80852 -0.578125 4.0507 1.73438 1.7382C2.73828 0.734298 4.07422 0.121017 5.48828 0.0194545C6.89062 -0.0860143 8.28516 0.308517 9.41406 1.13274L9.77734 1.39836L7.90234 6.24602L10.8906 8.9843L8.43359 11.664L9.73047 18.1171ZM5.92578 1.1718C5.80859 1.1718 5.69141 1.1757 5.57812 1.18352C4.4375 1.26945 3.36719 1.75774 2.5625 2.56633C0.707031 4.4218 0.707031 7.43742 2.5625 9.29289L7.81641 14.5468L7.16797 11.3163L9.23828 9.06242L6.52344 6.57414L8.35156 1.83586C7.62109 1.40227 6.78125 1.1718 5.92578 1.1718Z" fill="white"/>
<path d="M10.8162 17.5703L9.69897 12.0195L12.5466 8.91404L9.28491 5.92185L11.3162 0.675757L11.5271 0.574195C13.7888 -0.50393 16.4958 -0.0351802 18.2693 1.73435C20.5818 4.04685 20.5818 7.80857 18.2693 10.1172L10.8162 17.5703ZM10.9646 12.3711L11.531 15.1953L17.4333 9.29294C19.2888 7.43748 19.2888 4.42185 17.4333 2.56638C16.0662 1.19919 13.9998 0.800757 12.2302 1.54294L10.6599 5.60154L14.199 8.84373L10.9646 12.3711Z" fill="white"/>
</g>
<defs>
<clipPath id="clip0">
<rect width="20" height="18.1172" fill="white"/>
</clipPath>
</defs>
</svg>
