<svg width="20" height="20" viewBox="0 0 20 20" fill="none" xmlns="http://www.w3.org/2000/svg">
<g clip-path="url(#clip0)">
<path d="M4.95468 8.47675H7.19386C7.53038 8.07397 8.02945 7.83479 8.5657 7.83479C9.10195 7.83479 9.60101 8.07397 9.93753 8.47675H10.6679V7.47182C10.6679 7.17089 10.8959 6.91893 11.1953 6.88882C11.507 6.85749 11.7512 6.58753 11.7512 6.27417C11.7512 5.96085 11.507 5.69085 11.1953 5.65956C10.8959 5.62948 10.6679 5.37749 10.6679 5.07655V3.34206C10.6679 3.1769 10.7376 3.0194 10.8599 2.90835C10.9821 2.79729 11.1454 2.74304 11.31 2.75878C12.8664 2.90847 14.31 3.63206 15.375 4.79632C16.4473 5.96858 17.0378 7.48421 17.0378 9.06393V9.97112L18.5917 12.8878C18.6885 13.0694 18.6828 13.2884 18.577 13.4648C18.4711 13.6413 18.2804 13.7492 18.0746 13.7492H17.0378V14.9585C17.0378 16.7856 15.5513 18.2721 13.7242 18.2721H11.8589V19.4142C11.8589 19.7378 11.5966 20.0001 11.273 20.0001H4.95468C4.63109 20.0001 4.36874 19.7378 4.36874 19.4142V9.06268C4.36874 8.73909 4.63109 8.47675 4.95468 8.47675ZM5.54062 18.8282H10.687V17.6862C10.687 17.3626 10.9494 17.1003 11.273 17.1003H13.7242C14.9051 17.1003 15.8659 16.1395 15.8659 14.9585V13.1633C15.8659 12.8397 16.1283 12.5774 16.4519 12.5774H17.0985L15.9348 10.393C15.8896 10.3082 15.8659 10.2136 15.8659 10.1175V9.06401C15.8659 6.6535 14.1431 4.55604 11.8398 4.02917V4.62866C12.4832 4.90311 12.9231 5.53866 12.9231 6.27421C12.9231 7.00972 12.4832 7.6453 11.8398 7.91975V9.06268C11.8398 9.38628 11.5775 9.64862 11.2539 9.64862H9.62925C9.41265 9.64862 9.21367 9.52909 9.11195 9.33784C9.00328 9.13354 8.79398 9.00663 8.5657 9.00663C8.33742 9.00663 8.12808 9.13354 8.01941 9.33784C7.91769 9.52909 7.71874 9.64858 7.5021 9.64858H5.54062V18.8282Z" fill="white"/>
<path d="M7.67403 0C7.87388 0 8.07798 0.00988281 8.28067 0.029375C8.58118 0.0582813 8.81052 0.310742 8.81052 0.612617V1.89922C9.45396 2.17367 9.8938 2.80926 9.8938 3.54477C9.8938 4.28031 9.45396 4.9159 8.81052 5.19031V6.33324C8.81052 6.65684 8.54817 6.91918 8.22458 6.91918H6.60001C6.38341 6.91918 6.18442 6.79965 6.08271 6.6084C5.97407 6.40414 5.76474 6.27723 5.53646 6.27723C5.30817 6.27723 5.09884 6.40414 4.9902 6.6084C4.88849 6.79965 4.6895 6.91918 4.4729 6.91918H1.92548C1.77005 6.91918 1.62103 6.85742 1.5111 6.7475C1.40122 6.63758 1.3395 6.48852 1.33954 6.33309C1.34032 2.84102 4.18196 0 7.67403 0V0ZM4.16462 5.74727C4.50114 5.34449 5.00021 5.10531 5.53646 5.10531C6.0727 5.10531 6.57177 5.34449 6.90829 5.74727H7.63868V4.74234C7.63868 4.44141 7.86661 4.18941 8.16606 4.15934C8.47778 4.12801 8.72196 3.85805 8.72196 3.54473C8.72196 3.23141 8.47778 2.96141 8.16602 2.93008C7.86661 2.9 7.63868 2.64801 7.63868 2.34707V1.17199C5.00677 1.18977 2.83587 3.18773 2.54462 5.74727H4.16462Z" fill="white"/>
</g>
<defs>
<clipPath id="clip0">
<rect width="20" height="20" fill="white" transform="matrix(-1 0 0 1 20 0)"/>
</clipPath>
</defs>
</svg>
