<svg width="19" height="20" viewBox="0 0 19 20" fill="none" xmlns="http://www.w3.org/2000/svg">
<g clip-path="url(#clip0)">
<path d="M17.8008 9.07812L16.4453 8.59766C16.457 8.47656 16.4648 8.35547 16.4648 8.23438C16.4648 7.10938 15.8203 5.94141 14.8633 5.34375C14.9609 4.87109 14.9102 4.37891 14.7031 3.92969C14.4805 3.44141 14.1016 3.05469 13.6289 2.82812C13.5664 2.13281 13.2734 1.48438 12.7812 0.972656C12.1875 0.34375 11.3906 0 10.5312 0C9.64453 0 8.8125 0.382813 8.23047 1.01953C7.65234 0.382813 6.82031 0 5.92969 0C5.07031 0 4.27344 0.34375 3.67969 0.964844C3.19141 1.47656 2.89844 2.125 2.83594 2.82031C2.36328 3.05078 1.98437 3.43359 1.76172 3.92188C1.55469 4.37109 1.50391 4.86719 1.60156 5.33594C0.613281 5.95313 0 7.03516 0 8.22656C0 9.41797 0.613281 10.5039 1.60156 11.1172C1.50391 11.5898 1.55469 12.082 1.76172 12.5312C1.98437 13.0195 2.36328 13.4062 2.83594 13.6328C2.89844 14.3281 3.19141 14.9766 3.68359 15.4883C4.27734 16.1094 5.07422 16.4531 5.93359 16.4531C6.66406 16.4531 7.35156 16.2031 7.89844 15.7539C8.55469 17.9648 10.4648 19.6758 12.8477 19.9844C12.8711 19.9883 12.8984 19.9883 12.9219 19.9883C12.9453 19.9883 12.9727 19.9883 12.9961 19.9844C15.957 19.6016 18.1875 17.0586 18.1875 14.0703V9.61719C18.1875 9.38281 18.0312 9.16016 17.8008 9.07812ZM7.58203 14.3672C7.22656 14.9453 6.60937 15.2891 5.93359 15.2891C5.39844 15.2891 4.90234 15.0742 4.53125 14.6875C4.16406 14.3008 3.97266 13.793 4 13.2578C4.01172 12.9805 3.82812 12.7305 3.55859 12.6641C3.23438 12.582 2.96875 12.3594 2.82812 12.0508C2.74609 11.8711 2.71484 11.6797 2.73047 11.4922C2.92188 11.5273 3.11719 11.543 3.31641 11.543C3.44531 11.543 3.57812 11.5352 3.70703 11.5195C3.74219 11.5156 3.77344 11.5078 3.80859 11.5C4.10938 11.8477 4.53516 12.0859 5.02734 12.1367C5.04688 12.1406 5.06641 12.1406 5.08984 12.1406C5.38672 12.1406 5.64062 11.918 5.67188 11.6133C5.70703 11.293 5.47266 11.0039 5.14844 10.9688C4.79688 10.9336 4.53516 10.6406 4.53516 10.2891C4.53516 10.1914 4.55469 10.0977 4.59375 10.0117C4.72656 9.71484 4.59375 9.37109 4.29688 9.23828C4 9.10547 3.65625 9.23828 3.52344 9.53516C3.41797 9.77344 3.36328 10.0273 3.36328 10.293C3.36328 10.3203 3.36328 10.3438 3.36328 10.3711C3.34766 10.3711 3.33203 10.3711 3.31641 10.3711C2.77344 10.3711 2.24219 10.1602 1.84766 9.78906C0.8125 8.81641 1.03906 7.07422 2.22266 6.33203C2.30078 6.40234 2.38672 6.46875 2.47266 6.52344C2.39844 6.64844 2.33203 6.78125 2.28516 6.92578C2.18359 7.23438 2.35156 7.5625 2.66016 7.66406C2.71875 7.68359 2.78125 7.69141 2.83984 7.69141C3.08594 7.69141 3.31641 7.53516 3.39844 7.28516C3.50781 6.94922 3.84766 6.75391 4.19141 6.82812C4.28516 6.84766 4.375 6.88672 4.45312 6.94531C4.71484 7.13672 5.08203 7.07812 5.27344 6.81641C5.46484 6.55469 5.40625 6.1875 5.14453 5.99609C4.93359 5.83984 4.69531 5.73437 4.4375 5.67969C4.06641 5.60156 3.69531 5.63672 3.36328 5.76562C3.3125 5.6875 3.24609 5.61719 3.16016 5.56641C2.73047 5.31641 2.62109 4.84375 2.82422 4.39844C2.98438 4.05078 3.29297 3.82422 3.68359 3.82422C3.89453 3.82422 4.09375 3.88672 4.26172 4.00781C4.36328 4.08203 4.48438 4.11719 4.60156 4.11719C4.78516 4.11719 4.96484 4.03125 5.07812 3.87109C5.26562 3.60547 5.20312 3.24219 4.94141 3.05469C4.66797 2.85938 4.35938 2.73438 4.03516 2.67969C4.10938 2.33594 4.27734 2.01953 4.52734 1.75781C4.89453 1.37109 5.39453 1.16016 5.92969 1.16016C6.625 1.16016 7.26172 1.53516 7.60547 2.12891C7.51953 2.39453 7.46875 2.67188 7.45703 2.94922C7.45312 3.01562 7.46484 3.08203 7.48438 3.14453C7.19531 3.36719 6.96484 3.67578 6.84375 4.04688C6.74219 4.35547 6.91016 4.68359 7.21875 4.78516C7.27734 4.80469 7.33984 4.8125 7.39844 4.8125C7.64453 4.8125 7.875 4.65625 7.95703 4.40625C8.06641 4.07031 8.40625 3.875 8.75 3.94922C8.84375 3.96875 8.93359 4.00781 9.01172 4.06641C9.27344 4.25781 9.64062 4.19922 9.83203 3.9375C10.0234 3.67578 9.96484 3.30859 9.70312 3.11719C9.49219 2.96094 9.25391 2.85547 8.99609 2.80078C8.87891 2.77734 8.76562 2.76172 8.65234 2.75781C8.63281 2.75781 8.80469 2.26172 8.82812 2.21875C9.15234 1.56641 9.79688 1.15234 10.5312 1.15234C11.0664 1.15234 11.5625 1.36719 11.9336 1.75391C12.1836 2.01562 12.3477 2.32812 12.4219 2.67188C12.082 2.72266 11.7617 2.85156 11.4805 3.05078C11.2148 3.23828 11.1562 3.60547 11.3438 3.86719C11.457 4.02734 11.6367 4.11328 11.8203 4.11328C11.9375 4.11328 12.0547 4.07812 12.1602 4.00391C12.6719 3.64062 13.3789 3.82812 13.6367 4.39062C13.7109 4.55469 13.7461 4.73047 13.7383 4.90234C13.5469 4.86719 13.3516 4.84766 13.1523 4.84766C12.9219 4.84766 12.6914 4.87109 12.4688 4.91797C12.1523 4.98438 11.9492 5.29688 12.0156 5.61328C12.082 5.92969 12.3945 6.13281 12.7109 6.06641C12.8555 6.03516 13.0039 6.01953 13.1523 6.01953C13.6133 6.01953 14.0625 6.17188 14.4336 6.44531C14.957 6.85547 15.2812 7.48047 15.293 8.16797L13.1211 7.39844C12.9961 7.35156 12.8555 7.35156 12.7305 7.39844L8.04688 9.05859C7.8125 9.14062 7.65625 9.36328 7.65625 9.60938V14.0625C7.65625 14.125 7.65625 14.1875 7.66016 14.25C7.62891 14.3008 7.60156 14.332 7.58203 14.3672ZM17.0156 14.082C17.0156 16.457 15.2617 18.4805 12.918 18.8203C10.5781 18.4805 8.82031 16.4531 8.82031 14.082V10.043L12.918 8.58984L17.0156 10.043V14.082Z" fill="white"/>
</g>
<defs>
<clipPath id="clip0">
<rect width="18.1875" height="20" fill="white"/>
</clipPath>
</defs>
</svg>
