<svg width="25" height="25" viewBox="0 0 25 25" fill="none" xmlns="http://www.w3.org/2000/svg">
<g clip-path="url(#clip0)">
<path d="M12.4995 -0.0263672C5.59248 -0.0263672 -0.027832 5.59238 -0.027832 12.5002C-0.027832 19.408 5.59248 25.0268 12.4995 25.0268C19.4065 25.0268 25.0269 19.408 25.0269 12.5002C25.0269 5.59238 19.4065 -0.0263672 12.4995 -0.0263672ZM12.4995 24.1924C6.05264 24.1924 0.808105 18.9471 0.808105 12.5002C0.808105 6.05332 6.05264 0.808008 12.4995 0.808008C18.9464 0.808008 24.1909 6.05332 24.1909 12.5002C24.1909 18.9471 18.9464 24.1924 12.4995 24.1924Z" fill="#525A65"/>
<path d="M19.3689 8.62988C19.4556 8.46948 19.527 8.30129 19.5822 8.12754C19.6078 8.04694 19.6083 7.96049 19.5837 7.87959C19.5591 7.7987 19.5106 7.72717 19.4445 7.67444C19.3784 7.62171 19.2978 7.59027 19.2135 7.58427C19.1292 7.57827 19.045 7.59799 18.9721 7.64082C18.5718 7.87864 18.1384 8.05582 17.6861 8.1666C17.1371 7.67111 16.4241 7.39643 15.6846 7.39551C15.2828 7.39582 14.8852 7.47725 14.5157 7.63493C14.1461 7.79261 13.8122 8.02329 13.534 8.31313C13.2557 8.60297 13.0389 8.94602 12.8964 9.3217C12.7539 9.69738 12.6888 10.098 12.7049 10.4994C10.9479 10.2782 9.34343 9.38914 8.22442 8.0166C8.18154 7.9646 8.12675 7.92372 8.0647 7.89743C8.00264 7.87114 7.93516 7.86021 7.86798 7.86558C7.8008 7.87095 7.7359 7.89245 7.67881 7.92827C7.62172 7.96408 7.57412 8.01314 7.54004 8.07129C7.28381 8.51108 7.14454 9.00918 7.13551 9.51809C7.12649 10.027 7.24801 10.5297 7.48848 10.9783C7.4295 10.9883 7.37284 11.0089 7.32129 11.0393C7.25813 11.0795 7.20612 11.1351 7.17007 11.2008C7.13403 11.2664 7.1151 11.3401 7.11504 11.415C7.11504 12.3018 7.50957 13.1158 8.14551 13.6689L8.11817 13.6963C8.07016 13.7506 8.03713 13.8165 8.02233 13.8874C8.00754 13.9584 8.01149 14.032 8.03379 14.101C8.1664 14.5147 8.38782 14.8944 8.68255 15.2135C8.97728 15.5327 9.3382 15.7836 9.74004 15.9486C8.91472 16.3512 7.9911 16.5083 7.07911 16.401C6.98536 16.3914 6.89109 16.4132 6.81107 16.463C6.73105 16.5128 6.6698 16.5877 6.63692 16.676C6.60534 16.7649 6.60475 16.862 6.63524 16.9513C6.66573 17.0407 6.72551 17.1171 6.80489 17.1682C8.04474 17.9639 9.48711 18.3867 10.9604 18.3861C15.7885 18.3861 18.6744 14.4643 18.6744 10.6729L18.6736 10.5447C19.1416 10.1794 19.548 9.7416 19.8775 9.24785C19.9274 9.17321 19.952 9.08448 19.9475 8.9948C19.9431 8.90513 19.9099 8.81927 19.8528 8.74994C19.7957 8.68061 19.7179 8.6315 19.6307 8.60988C19.5436 8.58825 19.4518 8.59527 19.3689 8.62988ZM18.0057 10.001C17.949 10.0417 17.9034 10.0961 17.8731 10.159C17.8428 10.2219 17.8288 10.2914 17.8322 10.3611C17.8369 10.4643 17.8393 10.5689 17.8393 10.6721C17.8393 14.0533 15.2666 17.551 10.9611 17.551C10.1932 17.5513 9.43078 17.4224 8.70567 17.1697C9.5741 17.0033 10.3899 16.6309 11.0846 16.0838C11.1522 16.0305 11.2017 15.9576 11.2263 15.8751C11.2509 15.7925 11.2495 15.7044 11.2221 15.6228C11.1947 15.5411 11.1428 15.4699 11.0735 15.4189C11.0041 15.3679 10.9207 15.3395 10.8346 15.3377C10.4977 15.3313 10.1671 15.2458 9.86935 15.0881C9.57162 14.9304 9.31511 14.7049 9.12051 14.4299C9.31817 14.4166 9.51192 14.3838 9.7002 14.333C9.79132 14.3086 9.87149 14.2541 9.92762 14.1783C9.98376 14.1024 10.0125 14.0098 10.0093 13.9156C10.006 13.8213 9.9709 13.7309 9.90966 13.6592C9.84842 13.5874 9.76467 13.5385 9.67207 13.5205C9.29162 13.4431 8.93937 13.2638 8.653 13.0016C8.36663 12.7394 8.15691 12.4044 8.04629 12.0322C8.25411 12.0846 8.46739 12.115 8.68067 12.1221C8.86426 12.1213 9.03457 12.0088 9.09161 11.8322C9.14864 11.6557 9.08145 11.4611 8.92598 11.358C8.55838 11.1131 8.27534 10.7607 8.11552 10.3489C7.9557 9.93709 7.92688 9.48601 8.03301 9.05723C9.39007 10.4497 11.2225 11.2788 13.1643 11.3791C13.3018 11.3799 13.4221 11.3307 13.5057 11.2299C13.5893 11.1291 13.6213 10.9955 13.5916 10.8674C13.4848 10.4072 13.5325 9.92468 13.7276 9.49442C13.9226 9.06417 14.254 8.71018 14.6705 8.48726C15.087 8.26434 15.5654 8.1849 16.0316 8.26124C16.4978 8.33758 16.9258 8.56545 17.2494 8.90957C17.2979 8.96132 17.3588 8.99988 17.4263 9.02161C17.4938 9.04334 17.5658 9.04753 17.6354 9.03379C17.7643 9.00801 17.8916 8.97832 18.0174 8.94395C17.9607 8.98639 17.9017 9.02577 17.8408 9.06191C17.7598 9.11154 17.6981 9.18728 17.6659 9.27667C17.6337 9.36605 17.6329 9.46373 17.6637 9.55362C17.6944 9.64351 17.7549 9.72024 17.8351 9.77117C17.9153 9.8221 18.0105 9.84419 18.1049 9.83379L18.2471 9.81582C18.1688 9.88032 18.0883 9.94207 18.0057 10.001Z" fill="#525A65"/>
<path d="M10.8332 15.8334C11.1665 16.5001 9.16688 16.9445 8.33355 17.0834C11.6666 18.7501 15.4166 16.389 16.6669 15.0001V14.5834C18.0002 13.9167 18.0558 11.5279 17.9169 10.4167L18.7502 10.0001L18.3336 9.16675L17.9169 8.75008L15.4169 7.91675L14.5836 8.33341L13.7502 9.16675L13.3336 10.0001V11.2501C11.3335 11.5834 8.88885 9.7223 7.9165 8.75008C7.24984 9.41675 7.9165 10.6945 8.33317 11.2501L7.9165 11.6667V12.5001C8.47206 12.9167 9.08355 13.8334 8.75022 14.1667C8.41688 14.5001 10.1387 15.4167 10.8332 15.8334Z" fill="#525A65"/>
</g>
<defs>
<clipPath id="clip0">
<rect width="25" height="25" fill="white"/>
</clipPath>
</defs>
</svg>
