<svg width="37" height="40" viewBox="0 0 37 40" fill="none" xmlns="http://www.w3.org/2000/svg">
<g clip-path="url(#clip0)">
<path d="M15.625 5.85938C15.625 5.2125 15.1 4.6875 14.4531 4.6875H11.3281C10.6813 4.6875 10.1562 5.2125 10.1562 5.85938C10.1562 6.50625 10.6813 7.03125 11.3281 7.03125H14.4531C15.1 7.03125 15.625 6.50625 15.625 5.85938Z" fill="#0367FF"/>
<path d="M7.03125 7.03125C7.67846 7.03125 8.20312 6.50658 8.20312 5.85938C8.20312 5.21217 7.67846 4.6875 7.03125 4.6875C6.38404 4.6875 5.85938 5.21217 5.85938 5.85938C5.85938 6.50658 6.38404 7.03125 7.03125 7.03125Z" fill="#0367FF"/>
<path d="M36.1633 17.5188C35.818 17.3055 35.3867 17.2859 35.0234 17.4672L31.8352 19.0609C31.4531 18.1102 30.5516 17.4227 29.4844 17.35C29.6164 16.9813 29.6883 16.5844 29.6883 16.1711C29.6883 14.2328 28.1109 12.6555 26.1727 12.6555C26.0406 12.6555 25.9102 12.6633 25.782 12.6773V4.29688C25.782 1.92734 23.8547 0 21.4852 0H4.29688C1.92734 0 0 1.92734 0 4.29688V35.7031C0 38.0727 1.92734 40 4.29688 40H21.4844C23.8539 40 25.7812 38.0727 25.7812 35.7031V29.0625H29.2969C30.4453 29.0625 31.4305 28.35 31.8344 27.3445L35.0227 28.9383C35.1883 29.0211 35.368 29.0617 35.5469 29.0617C35.7609 29.0617 35.975 29.0031 36.1633 28.8867C36.5086 28.6734 36.7188 28.2961 36.7188 27.8898V18.5156C36.7188 18.1094 36.5086 17.732 36.1633 17.5188ZM27.3438 16.1719C27.3438 16.818 26.818 17.3438 26.1719 17.3438C25.5258 17.3438 25 16.818 25 16.1719C25 15.5258 25.5258 15 26.1719 15C26.818 15 27.3438 15.5258 27.3438 16.1719ZM18.75 15.3906C18.75 14.3133 19.6258 13.4375 20.7031 13.4375C21.7805 13.4375 22.6562 14.3133 22.6562 15.3906C22.6562 16.468 21.7805 17.3438 20.7031 17.3438C19.6258 17.3438 18.75 16.4672 18.75 15.3906ZM21.4844 37.6562H4.29688C3.22031 37.6562 2.34375 36.7797 2.34375 35.7031V35.3125H23.4375V35.7031C23.4375 36.7797 22.5617 37.6562 21.4844 37.6562ZM23.4375 32.9688H2.34375V4.29688C2.34375 3.22031 3.22031 2.34375 4.29688 2.34375H21.4844C22.5617 2.34375 23.4375 3.22031 23.4375 4.29688V12.0789C22.6938 11.4641 21.7414 11.0945 20.7031 11.0945C18.3336 11.0945 16.4062 13.0219 16.4062 15.3914C16.4062 16.0945 16.5773 16.7578 16.8781 17.3445H16.7969C15.2891 17.3445 14.0625 18.5711 14.0625 20.0789V26.3289C14.0625 27.8367 15.2891 29.0633 16.7969 29.0633H23.4375V32.9688ZM29.6875 26.3281C29.6875 26.5438 29.5125 26.7188 29.2969 26.7188H16.7969C16.5812 26.7188 16.4062 26.5438 16.4062 26.3281V20.0781C16.4062 19.8625 16.5812 19.6875 16.7969 19.6875H29.2969C29.5125 19.6875 29.6875 19.8625 29.6875 20.0781V26.3281ZM34.375 25.9945L32.0312 24.8227V21.5836L34.375 20.4117V25.9945Z" fill="#0367FF"/>
</g>
<defs>
<clipPath id="clip0">
<rect width="36.7188" height="40" fill="white"/>
</clipPath>
</defs>
</svg>
